%TF.GenerationSoftware,KiCad,Pcbnew,8.0.6*%
%TF.CreationDate,2025-02-23T17:02:55-05:00*%
%TF.ProjectId,Wire Spool Antenna Blank V1.3,57697265-2053-4706-9f6f-6c20416e7465,rev?*%
%TF.SameCoordinates,Original*%
%TF.FileFunction,Legend,Top*%
%TF.FilePolarity,Positive*%
%FSLAX46Y46*%
G04 Gerber Fmt 4.6, Leading zero omitted, Abs format (unit mm)*
G04 Created by KiCad (PCBNEW 8.0.6) date 2025-02-23 17:02:55*
%MOMM*%
%LPD*%
G01*
G04 APERTURE LIST*
%ADD10C,0.150000*%
G04 APERTURE END LIST*
D10*
X119238095Y-127204819D02*
X119238095Y-126204819D01*
X119238095Y-126681009D02*
X119809523Y-126681009D01*
X119809523Y-127204819D02*
X119809523Y-126204819D01*
X120761904Y-126204819D02*
X120285714Y-126204819D01*
X120285714Y-126204819D02*
X120238095Y-126681009D01*
X120238095Y-126681009D02*
X120285714Y-126633390D01*
X120285714Y-126633390D02*
X120380952Y-126585771D01*
X120380952Y-126585771D02*
X120619047Y-126585771D01*
X120619047Y-126585771D02*
X120714285Y-126633390D01*
X120714285Y-126633390D02*
X120761904Y-126681009D01*
X120761904Y-126681009D02*
X120809523Y-126776247D01*
X120809523Y-126776247D02*
X120809523Y-127014342D01*
X120809523Y-127014342D02*
X120761904Y-127109580D01*
X120761904Y-127109580D02*
X120714285Y-127157200D01*
X120714285Y-127157200D02*
X120619047Y-127204819D01*
X120619047Y-127204819D02*
X120380952Y-127204819D01*
X120380952Y-127204819D02*
X120285714Y-127157200D01*
X120285714Y-127157200D02*
X120238095Y-127109580D01*
X99238095Y-94954819D02*
X99238095Y-93954819D01*
X99238095Y-94431009D02*
X99809523Y-94431009D01*
X99809523Y-94954819D02*
X99809523Y-93954819D01*
X100809523Y-94954819D02*
X100238095Y-94954819D01*
X100523809Y-94954819D02*
X100523809Y-93954819D01*
X100523809Y-93954819D02*
X100428571Y-94097676D01*
X100428571Y-94097676D02*
X100333333Y-94192914D01*
X100333333Y-94192914D02*
X100238095Y-94240533D01*
X79238095Y-78454819D02*
X79238095Y-77454819D01*
X79238095Y-77931009D02*
X79809523Y-77931009D01*
X79809523Y-78454819D02*
X79809523Y-77454819D01*
X80190476Y-77454819D02*
X80809523Y-77454819D01*
X80809523Y-77454819D02*
X80476190Y-77835771D01*
X80476190Y-77835771D02*
X80619047Y-77835771D01*
X80619047Y-77835771D02*
X80714285Y-77883390D01*
X80714285Y-77883390D02*
X80761904Y-77931009D01*
X80761904Y-77931009D02*
X80809523Y-78026247D01*
X80809523Y-78026247D02*
X80809523Y-78264342D01*
X80809523Y-78264342D02*
X80761904Y-78359580D01*
X80761904Y-78359580D02*
X80714285Y-78407200D01*
X80714285Y-78407200D02*
X80619047Y-78454819D01*
X80619047Y-78454819D02*
X80333333Y-78454819D01*
X80333333Y-78454819D02*
X80238095Y-78407200D01*
X80238095Y-78407200D02*
X80190476Y-78359580D01*
X79238095Y-127204819D02*
X79238095Y-126204819D01*
X79238095Y-126681009D02*
X79809523Y-126681009D01*
X79809523Y-127204819D02*
X79809523Y-126204819D01*
X80714285Y-126538152D02*
X80714285Y-127204819D01*
X80476190Y-126157200D02*
X80238095Y-126871485D01*
X80238095Y-126871485D02*
X80857142Y-126871485D01*
X119238095Y-78704819D02*
X119238095Y-77704819D01*
X119238095Y-78181009D02*
X119809523Y-78181009D01*
X119809523Y-78704819D02*
X119809523Y-77704819D01*
X120238095Y-77800057D02*
X120285714Y-77752438D01*
X120285714Y-77752438D02*
X120380952Y-77704819D01*
X120380952Y-77704819D02*
X120619047Y-77704819D01*
X120619047Y-77704819D02*
X120714285Y-77752438D01*
X120714285Y-77752438D02*
X120761904Y-77800057D01*
X120761904Y-77800057D02*
X120809523Y-77895295D01*
X120809523Y-77895295D02*
X120809523Y-77990533D01*
X120809523Y-77990533D02*
X120761904Y-78133390D01*
X120761904Y-78133390D02*
X120190476Y-78704819D01*
X120190476Y-78704819D02*
X120809523Y-78704819D01*
M02*
