%TF.GenerationSoftware,KiCad,Pcbnew,8.0.6*%
%TF.CreationDate,2025-01-31T16:57:08-05:00*%
%TF.ProjectId,Wire Spool Antenna V1.2,57697265-2053-4706-9f6f-6c20416e7465,rev?*%
%TF.SameCoordinates,Original*%
%TF.FileFunction,Copper,L1,Top*%
%TF.FilePolarity,Positive*%
%FSLAX46Y46*%
G04 Gerber Fmt 4.6, Leading zero omitted, Abs format (unit mm)*
G04 Created by KiCad (PCBNEW 8.0.6) date 2025-01-31 16:57:08*
%MOMM*%
%LPD*%
G01*
G04 APERTURE LIST*
G04 Aperture macros list*
%AMRoundRect*
0 Rectangle with rounded corners*
0 $1 Rounding radius*
0 $2 $3 $4 $5 $6 $7 $8 $9 X,Y pos of 4 corners*
0 Add a 4 corners polygon primitive as box body*
4,1,4,$2,$3,$4,$5,$6,$7,$8,$9,$2,$3,0*
0 Add four circle primitives for the rounded corners*
1,1,$1+$1,$2,$3*
1,1,$1+$1,$4,$5*
1,1,$1+$1,$6,$7*
1,1,$1+$1,$8,$9*
0 Add four rect primitives between the rounded corners*
20,1,$1+$1,$2,$3,$4,$5,0*
20,1,$1+$1,$4,$5,$6,$7,0*
20,1,$1+$1,$6,$7,$8,$9,0*
20,1,$1+$1,$8,$9,$2,$3,0*%
G04 Aperture macros list end*
%TA.AperFunction,WasherPad*%
%ADD10R,3.000000X5.000000*%
%TD*%
%TA.AperFunction,ComponentPad*%
%ADD11C,3.000000*%
%TD*%
%TA.AperFunction,ComponentPad*%
%ADD12C,6.400000*%
%TD*%
%TA.AperFunction,ConnectorPad*%
%ADD13C,12.000000*%
%TD*%
%TA.AperFunction,ComponentPad*%
%ADD14C,1.600000*%
%TD*%
%TA.AperFunction,ComponentPad*%
%ADD15RoundRect,0.400000X0.400000X0.400000X-0.400000X0.400000X-0.400000X-0.400000X0.400000X-0.400000X0*%
%TD*%
%TA.AperFunction,ComponentPad*%
%ADD16O,3.500000X7.000000*%
%TD*%
%TA.AperFunction,Conductor*%
%ADD17C,1.500000*%
%TD*%
%TA.AperFunction,Conductor*%
%ADD18C,0.200000*%
%TD*%
G04 APERTURE END LIST*
D10*
%TO.P,T1,*%
%TO.N,*%
X78786797Y-100000000D03*
X91514719Y-100000000D03*
X108485281Y-100000000D03*
X121213203Y-100000000D03*
D11*
%TO.P,T1,1,AA*%
%TO.N,Net-(J2-In)*%
X110748023Y-118667619D03*
%TO.P,T1,2,AB*%
%TO.N,GND*%
X115202796Y-115202796D03*
%TO.P,T1,3,SA*%
X118667619Y-110748023D03*
%TO.P,T1,4,SB*%
%TO.N,Net-(T1-SB)*%
X93989592Y-93989592D03*
%TD*%
D12*
%TO.P,H1,1,1*%
%TO.N,Net-(T1-SB)*%
X100000000Y-70500000D03*
D13*
X100000000Y-70500000D03*
%TD*%
D12*
%TO.P,H5,1,1*%
%TO.N,GND*%
X124800000Y-75200000D03*
%TD*%
D14*
%TO.P,C1,1*%
%TO.N,Net-(J2-In)*%
X102500000Y-124000000D03*
%TO.P,C1,2*%
%TO.N,GND*%
X97500000Y-124000000D03*
%TD*%
D12*
%TO.P,H3,1,1*%
%TO.N,GND*%
X75200000Y-124800000D03*
%TD*%
%TO.P,H2,1,1*%
%TO.N,GND*%
X124800000Y-124800000D03*
%TD*%
%TO.P,H6,1,1*%
%TO.N,GND*%
X75200000Y-75200000D03*
%TD*%
D15*
%TO.P,J2,1,In*%
%TO.N,Net-(J2-In)*%
X100000000Y-128500000D03*
D16*
%TO.P,J2,2,Ext*%
%TO.N,GND*%
X103800000Y-136300000D03*
X96200000Y-136300000D03*
%TD*%
D17*
%TO.N,GND*%
X96200000Y-125800000D02*
X96200000Y-136300000D01*
D18*
X118667619Y-111737973D02*
X118667619Y-110748023D01*
D17*
X115202796Y-124702796D02*
X115300000Y-124800000D01*
X115202796Y-115202796D02*
X115202796Y-124702796D01*
X97500000Y-124500000D02*
X96200000Y-125800000D01*
X124800000Y-124800000D02*
X115202796Y-115202796D01*
X93700000Y-124800000D02*
X94500000Y-124000000D01*
X96200000Y-136300000D02*
X103800000Y-136300000D01*
X75200000Y-124800000D02*
X93700000Y-124800000D01*
X115202796Y-115202796D02*
X118667619Y-111737973D01*
X118667619Y-110748024D02*
X118667619Y-111737973D01*
X94500000Y-124000000D02*
X97500000Y-124000000D01*
X75200000Y-75200000D02*
X75200000Y-124800000D01*
X115300000Y-124800000D02*
X103800000Y-136300000D01*
D18*
X97500000Y-124000000D02*
X97500000Y-124500000D01*
D17*
X124800000Y-75200000D02*
X124800000Y-124800000D01*
%TO.N,Net-(T1-SB)*%
X100000000Y-73000000D02*
X100000000Y-87979184D01*
X100000000Y-87979184D02*
X93989592Y-93989592D01*
%TO.N,Net-(J2-In)*%
X100000000Y-126500000D02*
X102500000Y-124000000D01*
X105415642Y-124000000D02*
X110748023Y-118667619D01*
X102500000Y-124000000D02*
X105415642Y-124000000D01*
X100000000Y-128500000D02*
X100000000Y-126500000D01*
%TD*%
M02*
