%TF.GenerationSoftware,KiCad,Pcbnew,8.0.6*%
%TF.CreationDate,2025-02-23T16:54:12-05:00*%
%TF.ProjectId,Wire Spool Antenna V1.3,57697265-2053-4706-9f6f-6c20416e7465,rev?*%
%TF.SameCoordinates,Original*%
%TF.FileFunction,Legend,Bot*%
%TF.FilePolarity,Positive*%
%FSLAX46Y46*%
G04 Gerber Fmt 4.6, Leading zero omitted, Abs format (unit mm)*
G04 Created by KiCad (PCBNEW 8.0.6) date 2025-02-23 16:54:12*
%MOMM*%
%LPD*%
G01*
G04 APERTURE LIST*
%ADD10C,0.200000*%
%ADD11C,0.010000*%
%ADD12C,0.000000*%
G04 APERTURE END LIST*
D10*
X108404762Y-78024950D02*
X107261905Y-78024950D01*
X107833334Y-80024950D02*
X107833334Y-78024950D01*
X106214286Y-78024950D02*
X105833333Y-78024950D01*
X105833333Y-78024950D02*
X105642857Y-78120188D01*
X105642857Y-78120188D02*
X105452381Y-78310664D01*
X105452381Y-78310664D02*
X105357143Y-78691616D01*
X105357143Y-78691616D02*
X105357143Y-79358283D01*
X105357143Y-79358283D02*
X105452381Y-79739235D01*
X105452381Y-79739235D02*
X105642857Y-79929712D01*
X105642857Y-79929712D02*
X105833333Y-80024950D01*
X105833333Y-80024950D02*
X106214286Y-80024950D01*
X106214286Y-80024950D02*
X106404762Y-79929712D01*
X106404762Y-79929712D02*
X106595238Y-79739235D01*
X106595238Y-79739235D02*
X106690476Y-79358283D01*
X106690476Y-79358283D02*
X106690476Y-78691616D01*
X106690476Y-78691616D02*
X106595238Y-78310664D01*
X106595238Y-78310664D02*
X106404762Y-78120188D01*
X106404762Y-78120188D02*
X106214286Y-78024950D01*
X103071428Y-79453521D02*
X102119047Y-79453521D01*
X103261904Y-80024950D02*
X102595238Y-78024950D01*
X102595238Y-78024950D02*
X101928571Y-80024950D01*
X101261904Y-80024950D02*
X101261904Y-78024950D01*
X101261904Y-78024950D02*
X100119047Y-80024950D01*
X100119047Y-80024950D02*
X100119047Y-78024950D01*
X99452380Y-78024950D02*
X98309523Y-78024950D01*
X98880952Y-80024950D02*
X98880952Y-78024950D01*
X97642856Y-78977331D02*
X96976189Y-78977331D01*
X96690475Y-80024950D02*
X97642856Y-80024950D01*
X97642856Y-80024950D02*
X97642856Y-78024950D01*
X97642856Y-78024950D02*
X96690475Y-78024950D01*
X95833332Y-80024950D02*
X95833332Y-78024950D01*
X95833332Y-78024950D02*
X94690475Y-80024950D01*
X94690475Y-80024950D02*
X94690475Y-78024950D01*
X93738094Y-80024950D02*
X93738094Y-78024950D01*
X93738094Y-78024950D02*
X92595237Y-80024950D01*
X92595237Y-80024950D02*
X92595237Y-78024950D01*
X91738094Y-79453521D02*
X90785713Y-79453521D01*
X91928570Y-80024950D02*
X91261904Y-78024950D01*
X91261904Y-78024950D02*
X90595237Y-80024950D01*
X102738094Y-81244838D02*
X102261904Y-83244838D01*
X102261904Y-83244838D02*
X101880951Y-81816266D01*
X101880951Y-81816266D02*
X101499999Y-83244838D01*
X101499999Y-83244838D02*
X101023809Y-81244838D01*
X100261904Y-83244838D02*
X100261904Y-81244838D01*
X98166666Y-83244838D02*
X98833333Y-82292457D01*
X99309523Y-83244838D02*
X99309523Y-81244838D01*
X99309523Y-81244838D02*
X98547618Y-81244838D01*
X98547618Y-81244838D02*
X98357142Y-81340076D01*
X98357142Y-81340076D02*
X98261904Y-81435314D01*
X98261904Y-81435314D02*
X98166666Y-81625790D01*
X98166666Y-81625790D02*
X98166666Y-81911504D01*
X98166666Y-81911504D02*
X98261904Y-82101980D01*
X98261904Y-82101980D02*
X98357142Y-82197219D01*
X98357142Y-82197219D02*
X98547618Y-82292457D01*
X98547618Y-82292457D02*
X99309523Y-82292457D01*
X97309523Y-82197219D02*
X96642856Y-82197219D01*
X96357142Y-83244838D02*
X97309523Y-83244838D01*
X97309523Y-83244838D02*
X97309523Y-81244838D01*
X97309523Y-81244838D02*
X96357142Y-81244838D01*
X87119047Y-148024950D02*
X85976190Y-148024950D01*
X86547619Y-150024950D02*
X86547619Y-148024950D01*
X84928571Y-148024950D02*
X84547618Y-148024950D01*
X84547618Y-148024950D02*
X84357142Y-148120188D01*
X84357142Y-148120188D02*
X84166666Y-148310664D01*
X84166666Y-148310664D02*
X84071428Y-148691616D01*
X84071428Y-148691616D02*
X84071428Y-149358283D01*
X84071428Y-149358283D02*
X84166666Y-149739235D01*
X84166666Y-149739235D02*
X84357142Y-149929712D01*
X84357142Y-149929712D02*
X84547618Y-150024950D01*
X84547618Y-150024950D02*
X84928571Y-150024950D01*
X84928571Y-150024950D02*
X85119047Y-149929712D01*
X85119047Y-149929712D02*
X85309523Y-149739235D01*
X85309523Y-149739235D02*
X85404761Y-149358283D01*
X85404761Y-149358283D02*
X85404761Y-148691616D01*
X85404761Y-148691616D02*
X85309523Y-148310664D01*
X85309523Y-148310664D02*
X85119047Y-148120188D01*
X85119047Y-148120188D02*
X84928571Y-148024950D01*
X88261904Y-153244838D02*
X88928571Y-152292457D01*
X89404761Y-153244838D02*
X89404761Y-151244838D01*
X89404761Y-151244838D02*
X88642856Y-151244838D01*
X88642856Y-151244838D02*
X88452380Y-151340076D01*
X88452380Y-151340076D02*
X88357142Y-151435314D01*
X88357142Y-151435314D02*
X88261904Y-151625790D01*
X88261904Y-151625790D02*
X88261904Y-151911504D01*
X88261904Y-151911504D02*
X88357142Y-152101980D01*
X88357142Y-152101980D02*
X88452380Y-152197219D01*
X88452380Y-152197219D02*
X88642856Y-152292457D01*
X88642856Y-152292457D02*
X89404761Y-152292457D01*
X87499999Y-152673409D02*
X86547618Y-152673409D01*
X87690475Y-153244838D02*
X87023809Y-151244838D01*
X87023809Y-151244838D02*
X86357142Y-153244838D01*
X85690475Y-153244838D02*
X85690475Y-151244838D01*
X85690475Y-151244838D02*
X85214285Y-151244838D01*
X85214285Y-151244838D02*
X84928570Y-151340076D01*
X84928570Y-151340076D02*
X84738094Y-151530552D01*
X84738094Y-151530552D02*
X84642856Y-151721028D01*
X84642856Y-151721028D02*
X84547618Y-152101980D01*
X84547618Y-152101980D02*
X84547618Y-152387695D01*
X84547618Y-152387695D02*
X84642856Y-152768647D01*
X84642856Y-152768647D02*
X84738094Y-152959123D01*
X84738094Y-152959123D02*
X84928570Y-153149600D01*
X84928570Y-153149600D02*
X85214285Y-153244838D01*
X85214285Y-153244838D02*
X85690475Y-153244838D01*
X83690475Y-153244838D02*
X83690475Y-151244838D01*
X82357142Y-151244838D02*
X81976189Y-151244838D01*
X81976189Y-151244838D02*
X81785713Y-151340076D01*
X81785713Y-151340076D02*
X81595237Y-151530552D01*
X81595237Y-151530552D02*
X81499999Y-151911504D01*
X81499999Y-151911504D02*
X81499999Y-152578171D01*
X81499999Y-152578171D02*
X81595237Y-152959123D01*
X81595237Y-152959123D02*
X81785713Y-153149600D01*
X81785713Y-153149600D02*
X81976189Y-153244838D01*
X81976189Y-153244838D02*
X82357142Y-153244838D01*
X82357142Y-153244838D02*
X82547618Y-153149600D01*
X82547618Y-153149600D02*
X82738094Y-152959123D01*
X82738094Y-152959123D02*
X82833332Y-152578171D01*
X82833332Y-152578171D02*
X82833332Y-151911504D01*
X82833332Y-151911504D02*
X82738094Y-151530552D01*
X82738094Y-151530552D02*
X82547618Y-151340076D01*
X82547618Y-151340076D02*
X82357142Y-151244838D01*
X120345237Y-55244838D02*
X120345237Y-53244838D01*
X119202380Y-55244838D02*
X120059523Y-54101980D01*
X119202380Y-53244838D02*
X120345237Y-54387695D01*
X117964285Y-53244838D02*
X117583332Y-53244838D01*
X117583332Y-53244838D02*
X117392856Y-53340076D01*
X117392856Y-53340076D02*
X117202380Y-53530552D01*
X117202380Y-53530552D02*
X117107142Y-53911504D01*
X117107142Y-53911504D02*
X117107142Y-54578171D01*
X117107142Y-54578171D02*
X117202380Y-54959123D01*
X117202380Y-54959123D02*
X117392856Y-55149600D01*
X117392856Y-55149600D02*
X117583332Y-55244838D01*
X117583332Y-55244838D02*
X117964285Y-55244838D01*
X117964285Y-55244838D02*
X118154761Y-55149600D01*
X118154761Y-55149600D02*
X118345237Y-54959123D01*
X118345237Y-54959123D02*
X118440475Y-54578171D01*
X118440475Y-54578171D02*
X118440475Y-53911504D01*
X118440475Y-53911504D02*
X118345237Y-53530552D01*
X118345237Y-53530552D02*
X118154761Y-53340076D01*
X118154761Y-53340076D02*
X117964285Y-53244838D01*
X115392856Y-53911504D02*
X115392856Y-55244838D01*
X115869047Y-53149600D02*
X116345237Y-54578171D01*
X116345237Y-54578171D02*
X115107142Y-54578171D01*
X114345237Y-55244838D02*
X114345237Y-53244838D01*
X114345237Y-54197219D02*
X113202380Y-54197219D01*
X113202380Y-55244838D02*
X113202380Y-53244838D01*
X112249999Y-53244838D02*
X112249999Y-54863885D01*
X112249999Y-54863885D02*
X112154761Y-55054361D01*
X112154761Y-55054361D02*
X112059523Y-55149600D01*
X112059523Y-55149600D02*
X111869047Y-55244838D01*
X111869047Y-55244838D02*
X111488094Y-55244838D01*
X111488094Y-55244838D02*
X111297618Y-55149600D01*
X111297618Y-55149600D02*
X111202380Y-55054361D01*
X111202380Y-55054361D02*
X111107142Y-54863885D01*
X111107142Y-54863885D02*
X111107142Y-53244838D01*
X110154761Y-55244838D02*
X110154761Y-53244838D01*
X83095238Y-84001840D02*
X82714286Y-85335174D01*
X82714286Y-85335174D02*
X82333333Y-84382793D01*
X82333333Y-84382793D02*
X81952381Y-85335174D01*
X81952381Y-85335174D02*
X81571429Y-84001840D01*
X81000000Y-84001840D02*
X80619048Y-85335174D01*
X80619048Y-85335174D02*
X80238095Y-84382793D01*
X80238095Y-84382793D02*
X79857143Y-85335174D01*
X79857143Y-85335174D02*
X79476191Y-84001840D01*
X78904762Y-84001840D02*
X78523810Y-85335174D01*
X78523810Y-85335174D02*
X78142857Y-84382793D01*
X78142857Y-84382793D02*
X77761905Y-85335174D01*
X77761905Y-85335174D02*
X77380953Y-84001840D01*
X76619048Y-85144697D02*
X76523810Y-85239936D01*
X76523810Y-85239936D02*
X76619048Y-85335174D01*
X76619048Y-85335174D02*
X76714286Y-85239936D01*
X76714286Y-85239936D02*
X76619048Y-85144697D01*
X76619048Y-85144697D02*
X76619048Y-85335174D01*
X75761905Y-85239936D02*
X75571429Y-85335174D01*
X75571429Y-85335174D02*
X75190477Y-85335174D01*
X75190477Y-85335174D02*
X75000000Y-85239936D01*
X75000000Y-85239936D02*
X74904762Y-85049459D01*
X74904762Y-85049459D02*
X74904762Y-84954221D01*
X74904762Y-84954221D02*
X75000000Y-84763745D01*
X75000000Y-84763745D02*
X75190477Y-84668507D01*
X75190477Y-84668507D02*
X75476191Y-84668507D01*
X75476191Y-84668507D02*
X75666667Y-84573269D01*
X75666667Y-84573269D02*
X75761905Y-84382793D01*
X75761905Y-84382793D02*
X75761905Y-84287555D01*
X75761905Y-84287555D02*
X75666667Y-84097078D01*
X75666667Y-84097078D02*
X75476191Y-84001840D01*
X75476191Y-84001840D02*
X75190477Y-84001840D01*
X75190477Y-84001840D02*
X75000000Y-84097078D01*
X74047619Y-84001840D02*
X74047619Y-86001840D01*
X74047619Y-84097078D02*
X73857143Y-84001840D01*
X73857143Y-84001840D02*
X73476190Y-84001840D01*
X73476190Y-84001840D02*
X73285714Y-84097078D01*
X73285714Y-84097078D02*
X73190476Y-84192316D01*
X73190476Y-84192316D02*
X73095238Y-84382793D01*
X73095238Y-84382793D02*
X73095238Y-84954221D01*
X73095238Y-84954221D02*
X73190476Y-85144697D01*
X73190476Y-85144697D02*
X73285714Y-85239936D01*
X73285714Y-85239936D02*
X73476190Y-85335174D01*
X73476190Y-85335174D02*
X73857143Y-85335174D01*
X73857143Y-85335174D02*
X74047619Y-85239936D01*
X71952381Y-85335174D02*
X72142857Y-85239936D01*
X72142857Y-85239936D02*
X72238095Y-85144697D01*
X72238095Y-85144697D02*
X72333333Y-84954221D01*
X72333333Y-84954221D02*
X72333333Y-84382793D01*
X72333333Y-84382793D02*
X72238095Y-84192316D01*
X72238095Y-84192316D02*
X72142857Y-84097078D01*
X72142857Y-84097078D02*
X71952381Y-84001840D01*
X71952381Y-84001840D02*
X71666666Y-84001840D01*
X71666666Y-84001840D02*
X71476190Y-84097078D01*
X71476190Y-84097078D02*
X71380952Y-84192316D01*
X71380952Y-84192316D02*
X71285714Y-84382793D01*
X71285714Y-84382793D02*
X71285714Y-84954221D01*
X71285714Y-84954221D02*
X71380952Y-85144697D01*
X71380952Y-85144697D02*
X71476190Y-85239936D01*
X71476190Y-85239936D02*
X71666666Y-85335174D01*
X71666666Y-85335174D02*
X71952381Y-85335174D01*
X70142857Y-85335174D02*
X70333333Y-85239936D01*
X70333333Y-85239936D02*
X70428571Y-85144697D01*
X70428571Y-85144697D02*
X70523809Y-84954221D01*
X70523809Y-84954221D02*
X70523809Y-84382793D01*
X70523809Y-84382793D02*
X70428571Y-84192316D01*
X70428571Y-84192316D02*
X70333333Y-84097078D01*
X70333333Y-84097078D02*
X70142857Y-84001840D01*
X70142857Y-84001840D02*
X69857142Y-84001840D01*
X69857142Y-84001840D02*
X69666666Y-84097078D01*
X69666666Y-84097078D02*
X69571428Y-84192316D01*
X69571428Y-84192316D02*
X69476190Y-84382793D01*
X69476190Y-84382793D02*
X69476190Y-84954221D01*
X69476190Y-84954221D02*
X69571428Y-85144697D01*
X69571428Y-85144697D02*
X69666666Y-85239936D01*
X69666666Y-85239936D02*
X69857142Y-85335174D01*
X69857142Y-85335174D02*
X70142857Y-85335174D01*
X68333333Y-85335174D02*
X68523809Y-85239936D01*
X68523809Y-85239936D02*
X68619047Y-85049459D01*
X68619047Y-85049459D02*
X68619047Y-83335174D01*
X67857142Y-84001840D02*
X67095238Y-84001840D01*
X67571428Y-83335174D02*
X67571428Y-85049459D01*
X67571428Y-85049459D02*
X67476190Y-85239936D01*
X67476190Y-85239936D02*
X67285714Y-85335174D01*
X67285714Y-85335174D02*
X67095238Y-85335174D01*
X65666666Y-85239936D02*
X65857142Y-85335174D01*
X65857142Y-85335174D02*
X66238095Y-85335174D01*
X66238095Y-85335174D02*
X66428571Y-85239936D01*
X66428571Y-85239936D02*
X66523809Y-85049459D01*
X66523809Y-85049459D02*
X66523809Y-84287555D01*
X66523809Y-84287555D02*
X66428571Y-84097078D01*
X66428571Y-84097078D02*
X66238095Y-84001840D01*
X66238095Y-84001840D02*
X65857142Y-84001840D01*
X65857142Y-84001840D02*
X65666666Y-84097078D01*
X65666666Y-84097078D02*
X65571428Y-84287555D01*
X65571428Y-84287555D02*
X65571428Y-84478031D01*
X65571428Y-84478031D02*
X66523809Y-84668507D01*
X64714285Y-84001840D02*
X64714285Y-85335174D01*
X64714285Y-84192316D02*
X64619047Y-84097078D01*
X64619047Y-84097078D02*
X64428571Y-84001840D01*
X64428571Y-84001840D02*
X64142856Y-84001840D01*
X64142856Y-84001840D02*
X63952380Y-84097078D01*
X63952380Y-84097078D02*
X63857142Y-84287555D01*
X63857142Y-84287555D02*
X63857142Y-85335174D01*
X62904761Y-84001840D02*
X62904761Y-85335174D01*
X62904761Y-84192316D02*
X62809523Y-84097078D01*
X62809523Y-84097078D02*
X62619047Y-84001840D01*
X62619047Y-84001840D02*
X62333332Y-84001840D01*
X62333332Y-84001840D02*
X62142856Y-84097078D01*
X62142856Y-84097078D02*
X62047618Y-84287555D01*
X62047618Y-84287555D02*
X62047618Y-85335174D01*
X60238094Y-85335174D02*
X60238094Y-84287555D01*
X60238094Y-84287555D02*
X60333332Y-84097078D01*
X60333332Y-84097078D02*
X60523808Y-84001840D01*
X60523808Y-84001840D02*
X60904761Y-84001840D01*
X60904761Y-84001840D02*
X61095237Y-84097078D01*
X60238094Y-85239936D02*
X60428570Y-85335174D01*
X60428570Y-85335174D02*
X60904761Y-85335174D01*
X60904761Y-85335174D02*
X61095237Y-85239936D01*
X61095237Y-85239936D02*
X61190475Y-85049459D01*
X61190475Y-85049459D02*
X61190475Y-84858983D01*
X61190475Y-84858983D02*
X61095237Y-84668507D01*
X61095237Y-84668507D02*
X60904761Y-84573269D01*
X60904761Y-84573269D02*
X60428570Y-84573269D01*
X60428570Y-84573269D02*
X60238094Y-84478031D01*
X59285713Y-85144697D02*
X59190475Y-85239936D01*
X59190475Y-85239936D02*
X59285713Y-85335174D01*
X59285713Y-85335174D02*
X59380951Y-85239936D01*
X59380951Y-85239936D02*
X59285713Y-85144697D01*
X59285713Y-85144697D02*
X59285713Y-85335174D01*
X57476189Y-85239936D02*
X57666665Y-85335174D01*
X57666665Y-85335174D02*
X58047618Y-85335174D01*
X58047618Y-85335174D02*
X58238094Y-85239936D01*
X58238094Y-85239936D02*
X58333332Y-85144697D01*
X58333332Y-85144697D02*
X58428570Y-84954221D01*
X58428570Y-84954221D02*
X58428570Y-84382793D01*
X58428570Y-84382793D02*
X58333332Y-84192316D01*
X58333332Y-84192316D02*
X58238094Y-84097078D01*
X58238094Y-84097078D02*
X58047618Y-84001840D01*
X58047618Y-84001840D02*
X57666665Y-84001840D01*
X57666665Y-84001840D02*
X57476189Y-84097078D01*
X56333332Y-85335174D02*
X56523808Y-85239936D01*
X56523808Y-85239936D02*
X56619046Y-85144697D01*
X56619046Y-85144697D02*
X56714284Y-84954221D01*
X56714284Y-84954221D02*
X56714284Y-84382793D01*
X56714284Y-84382793D02*
X56619046Y-84192316D01*
X56619046Y-84192316D02*
X56523808Y-84097078D01*
X56523808Y-84097078D02*
X56333332Y-84001840D01*
X56333332Y-84001840D02*
X56047617Y-84001840D01*
X56047617Y-84001840D02*
X55857141Y-84097078D01*
X55857141Y-84097078D02*
X55761903Y-84192316D01*
X55761903Y-84192316D02*
X55666665Y-84382793D01*
X55666665Y-84382793D02*
X55666665Y-84954221D01*
X55666665Y-84954221D02*
X55761903Y-85144697D01*
X55761903Y-85144697D02*
X55857141Y-85239936D01*
X55857141Y-85239936D02*
X56047617Y-85335174D01*
X56047617Y-85335174D02*
X56333332Y-85335174D01*
X54809522Y-85335174D02*
X54809522Y-84001840D01*
X54809522Y-84192316D02*
X54714284Y-84097078D01*
X54714284Y-84097078D02*
X54523808Y-84001840D01*
X54523808Y-84001840D02*
X54238093Y-84001840D01*
X54238093Y-84001840D02*
X54047617Y-84097078D01*
X54047617Y-84097078D02*
X53952379Y-84287555D01*
X53952379Y-84287555D02*
X53952379Y-85335174D01*
X53952379Y-84287555D02*
X53857141Y-84097078D01*
X53857141Y-84097078D02*
X53666665Y-84001840D01*
X53666665Y-84001840D02*
X53380951Y-84001840D01*
X53380951Y-84001840D02*
X53190474Y-84097078D01*
X53190474Y-84097078D02*
X53095236Y-84287555D01*
X53095236Y-84287555D02*
X53095236Y-85335174D01*
X80380952Y-87221728D02*
X79904762Y-88555062D01*
X79904762Y-88555062D02*
X79428571Y-87221728D01*
X77619047Y-88555062D02*
X78761904Y-88555062D01*
X78190476Y-88555062D02*
X78190476Y-86555062D01*
X78190476Y-86555062D02*
X78380952Y-86840776D01*
X78380952Y-86840776D02*
X78571428Y-87031252D01*
X78571428Y-87031252D02*
X78761904Y-87126490D01*
X76761904Y-88364585D02*
X76666666Y-88459824D01*
X76666666Y-88459824D02*
X76761904Y-88555062D01*
X76761904Y-88555062D02*
X76857142Y-88459824D01*
X76857142Y-88459824D02*
X76761904Y-88364585D01*
X76761904Y-88364585D02*
X76761904Y-88555062D01*
X75999999Y-86555062D02*
X74761904Y-86555062D01*
X74761904Y-86555062D02*
X75428571Y-87316966D01*
X75428571Y-87316966D02*
X75142856Y-87316966D01*
X75142856Y-87316966D02*
X74952380Y-87412204D01*
X74952380Y-87412204D02*
X74857142Y-87507443D01*
X74857142Y-87507443D02*
X74761904Y-87697919D01*
X74761904Y-87697919D02*
X74761904Y-88174109D01*
X74761904Y-88174109D02*
X74857142Y-88364585D01*
X74857142Y-88364585D02*
X74952380Y-88459824D01*
X74952380Y-88459824D02*
X75142856Y-88555062D01*
X75142856Y-88555062D02*
X75714285Y-88555062D01*
X75714285Y-88555062D02*
X75904761Y-88459824D01*
X75904761Y-88459824D02*
X75999999Y-88364585D01*
X72476189Y-86745538D02*
X72380951Y-86650300D01*
X72380951Y-86650300D02*
X72190475Y-86555062D01*
X72190475Y-86555062D02*
X71714284Y-86555062D01*
X71714284Y-86555062D02*
X71523808Y-86650300D01*
X71523808Y-86650300D02*
X71428570Y-86745538D01*
X71428570Y-86745538D02*
X71333332Y-86936014D01*
X71333332Y-86936014D02*
X71333332Y-87126490D01*
X71333332Y-87126490D02*
X71428570Y-87412204D01*
X71428570Y-87412204D02*
X72571427Y-88555062D01*
X72571427Y-88555062D02*
X71333332Y-88555062D01*
X69047618Y-86459824D02*
X70761903Y-89031252D01*
X68476189Y-86745538D02*
X68380951Y-86650300D01*
X68380951Y-86650300D02*
X68190475Y-86555062D01*
X68190475Y-86555062D02*
X67714284Y-86555062D01*
X67714284Y-86555062D02*
X67523808Y-86650300D01*
X67523808Y-86650300D02*
X67428570Y-86745538D01*
X67428570Y-86745538D02*
X67333332Y-86936014D01*
X67333332Y-86936014D02*
X67333332Y-87126490D01*
X67333332Y-87126490D02*
X67428570Y-87412204D01*
X67428570Y-87412204D02*
X68571427Y-88555062D01*
X68571427Y-88555062D02*
X67333332Y-88555062D01*
X65619046Y-87221728D02*
X65619046Y-88555062D01*
X66095237Y-86459824D02*
X66571427Y-87888395D01*
X66571427Y-87888395D02*
X65333332Y-87888395D01*
X63142856Y-86459824D02*
X64857141Y-89031252D01*
X62571427Y-86745538D02*
X62476189Y-86650300D01*
X62476189Y-86650300D02*
X62285713Y-86555062D01*
X62285713Y-86555062D02*
X61809522Y-86555062D01*
X61809522Y-86555062D02*
X61619046Y-86650300D01*
X61619046Y-86650300D02*
X61523808Y-86745538D01*
X61523808Y-86745538D02*
X61428570Y-86936014D01*
X61428570Y-86936014D02*
X61428570Y-87126490D01*
X61428570Y-87126490D02*
X61523808Y-87412204D01*
X61523808Y-87412204D02*
X62666665Y-88555062D01*
X62666665Y-88555062D02*
X61428570Y-88555062D01*
X60190475Y-86555062D02*
X59999998Y-86555062D01*
X59999998Y-86555062D02*
X59809522Y-86650300D01*
X59809522Y-86650300D02*
X59714284Y-86745538D01*
X59714284Y-86745538D02*
X59619046Y-86936014D01*
X59619046Y-86936014D02*
X59523808Y-87316966D01*
X59523808Y-87316966D02*
X59523808Y-87793157D01*
X59523808Y-87793157D02*
X59619046Y-88174109D01*
X59619046Y-88174109D02*
X59714284Y-88364585D01*
X59714284Y-88364585D02*
X59809522Y-88459824D01*
X59809522Y-88459824D02*
X59999998Y-88555062D01*
X59999998Y-88555062D02*
X60190475Y-88555062D01*
X60190475Y-88555062D02*
X60380951Y-88459824D01*
X60380951Y-88459824D02*
X60476189Y-88364585D01*
X60476189Y-88364585D02*
X60571427Y-88174109D01*
X60571427Y-88174109D02*
X60666665Y-87793157D01*
X60666665Y-87793157D02*
X60666665Y-87316966D01*
X60666665Y-87316966D02*
X60571427Y-86936014D01*
X60571427Y-86936014D02*
X60476189Y-86745538D01*
X60476189Y-86745538D02*
X60380951Y-86650300D01*
X60380951Y-86650300D02*
X60190475Y-86555062D01*
X58761903Y-86745538D02*
X58666665Y-86650300D01*
X58666665Y-86650300D02*
X58476189Y-86555062D01*
X58476189Y-86555062D02*
X57999998Y-86555062D01*
X57999998Y-86555062D02*
X57809522Y-86650300D01*
X57809522Y-86650300D02*
X57714284Y-86745538D01*
X57714284Y-86745538D02*
X57619046Y-86936014D01*
X57619046Y-86936014D02*
X57619046Y-87126490D01*
X57619046Y-87126490D02*
X57714284Y-87412204D01*
X57714284Y-87412204D02*
X58857141Y-88555062D01*
X58857141Y-88555062D02*
X57619046Y-88555062D01*
X55809522Y-86555062D02*
X56761903Y-86555062D01*
X56761903Y-86555062D02*
X56857141Y-87507443D01*
X56857141Y-87507443D02*
X56761903Y-87412204D01*
X56761903Y-87412204D02*
X56571427Y-87316966D01*
X56571427Y-87316966D02*
X56095236Y-87316966D01*
X56095236Y-87316966D02*
X55904760Y-87412204D01*
X55904760Y-87412204D02*
X55809522Y-87507443D01*
X55809522Y-87507443D02*
X55714284Y-87697919D01*
X55714284Y-87697919D02*
X55714284Y-88174109D01*
X55714284Y-88174109D02*
X55809522Y-88364585D01*
X55809522Y-88364585D02*
X55904760Y-88459824D01*
X55904760Y-88459824D02*
X56095236Y-88555062D01*
X56095236Y-88555062D02*
X56571427Y-88555062D01*
X56571427Y-88555062D02*
X56761903Y-88459824D01*
X56761903Y-88459824D02*
X56857141Y-88364585D01*
X78000002Y-94899600D02*
X77714288Y-94994838D01*
X77714288Y-94994838D02*
X77238097Y-94994838D01*
X77238097Y-94994838D02*
X77047621Y-94899600D01*
X77047621Y-94899600D02*
X76952383Y-94804361D01*
X76952383Y-94804361D02*
X76857145Y-94613885D01*
X76857145Y-94613885D02*
X76857145Y-94423409D01*
X76857145Y-94423409D02*
X76952383Y-94232933D01*
X76952383Y-94232933D02*
X77047621Y-94137695D01*
X77047621Y-94137695D02*
X77238097Y-94042457D01*
X77238097Y-94042457D02*
X77619050Y-93947219D01*
X77619050Y-93947219D02*
X77809526Y-93851980D01*
X77809526Y-93851980D02*
X77904764Y-93756742D01*
X77904764Y-93756742D02*
X78000002Y-93566266D01*
X78000002Y-93566266D02*
X78000002Y-93375790D01*
X78000002Y-93375790D02*
X77904764Y-93185314D01*
X77904764Y-93185314D02*
X77809526Y-93090076D01*
X77809526Y-93090076D02*
X77619050Y-92994838D01*
X77619050Y-92994838D02*
X77142859Y-92994838D01*
X77142859Y-92994838D02*
X76857145Y-93090076D01*
X76000002Y-94994838D02*
X76000002Y-92994838D01*
X76000002Y-92994838D02*
X74857145Y-94994838D01*
X74857145Y-94994838D02*
X74857145Y-92994838D01*
X72857145Y-95185314D02*
X71333335Y-95185314D01*
X71333335Y-95185314D02*
X69809525Y-95185314D01*
X69809525Y-95185314D02*
X68285715Y-95185314D01*
X68285715Y-95185314D02*
X66761905Y-95185314D01*
X66761905Y-95185314D02*
X65238095Y-95185314D01*
X65238095Y-95185314D02*
X63714285Y-95185314D01*
X63714285Y-95185314D02*
X62190475Y-95185314D01*
X62190475Y-95185314D02*
X60666665Y-95185314D01*
X60666665Y-95185314D02*
X59142855Y-95185314D01*
X59142855Y-95185314D02*
X57619045Y-95185314D01*
X130642857Y-129585174D02*
X130261904Y-129585174D01*
X130261904Y-129585174D02*
X130071428Y-129680412D01*
X130071428Y-129680412D02*
X129880952Y-129870888D01*
X129880952Y-129870888D02*
X129785714Y-130251840D01*
X129785714Y-130251840D02*
X129785714Y-130918507D01*
X129785714Y-130918507D02*
X129880952Y-131299459D01*
X129880952Y-131299459D02*
X130071428Y-131489936D01*
X130071428Y-131489936D02*
X130261904Y-131585174D01*
X130261904Y-131585174D02*
X130642857Y-131585174D01*
X130642857Y-131585174D02*
X130833333Y-131489936D01*
X130833333Y-131489936D02*
X131023809Y-131299459D01*
X131023809Y-131299459D02*
X131119047Y-130918507D01*
X131119047Y-130918507D02*
X131119047Y-130251840D01*
X131119047Y-130251840D02*
X131023809Y-129870888D01*
X131023809Y-129870888D02*
X130833333Y-129680412D01*
X130833333Y-129680412D02*
X130642857Y-129585174D01*
X128928571Y-130251840D02*
X128928571Y-132251840D01*
X128928571Y-130347078D02*
X128738095Y-130251840D01*
X128738095Y-130251840D02*
X128357142Y-130251840D01*
X128357142Y-130251840D02*
X128166666Y-130347078D01*
X128166666Y-130347078D02*
X128071428Y-130442316D01*
X128071428Y-130442316D02*
X127976190Y-130632793D01*
X127976190Y-130632793D02*
X127976190Y-131204221D01*
X127976190Y-131204221D02*
X128071428Y-131394697D01*
X128071428Y-131394697D02*
X128166666Y-131489936D01*
X128166666Y-131489936D02*
X128357142Y-131585174D01*
X128357142Y-131585174D02*
X128738095Y-131585174D01*
X128738095Y-131585174D02*
X128928571Y-131489936D01*
X127404761Y-130251840D02*
X126642857Y-130251840D01*
X127119047Y-129585174D02*
X127119047Y-131299459D01*
X127119047Y-131299459D02*
X127023809Y-131489936D01*
X127023809Y-131489936D02*
X126833333Y-131585174D01*
X126833333Y-131585174D02*
X126642857Y-131585174D01*
X125976190Y-131585174D02*
X125976190Y-130251840D01*
X125976190Y-129585174D02*
X126071428Y-129680412D01*
X126071428Y-129680412D02*
X125976190Y-129775650D01*
X125976190Y-129775650D02*
X125880952Y-129680412D01*
X125880952Y-129680412D02*
X125976190Y-129585174D01*
X125976190Y-129585174D02*
X125976190Y-129775650D01*
X124738095Y-131585174D02*
X124928571Y-131489936D01*
X124928571Y-131489936D02*
X125023809Y-131394697D01*
X125023809Y-131394697D02*
X125119047Y-131204221D01*
X125119047Y-131204221D02*
X125119047Y-130632793D01*
X125119047Y-130632793D02*
X125023809Y-130442316D01*
X125023809Y-130442316D02*
X124928571Y-130347078D01*
X124928571Y-130347078D02*
X124738095Y-130251840D01*
X124738095Y-130251840D02*
X124452380Y-130251840D01*
X124452380Y-130251840D02*
X124261904Y-130347078D01*
X124261904Y-130347078D02*
X124166666Y-130442316D01*
X124166666Y-130442316D02*
X124071428Y-130632793D01*
X124071428Y-130632793D02*
X124071428Y-131204221D01*
X124071428Y-131204221D02*
X124166666Y-131394697D01*
X124166666Y-131394697D02*
X124261904Y-131489936D01*
X124261904Y-131489936D02*
X124452380Y-131585174D01*
X124452380Y-131585174D02*
X124738095Y-131585174D01*
X123214285Y-130251840D02*
X123214285Y-131585174D01*
X123214285Y-130442316D02*
X123119047Y-130347078D01*
X123119047Y-130347078D02*
X122928571Y-130251840D01*
X122928571Y-130251840D02*
X122642856Y-130251840D01*
X122642856Y-130251840D02*
X122452380Y-130347078D01*
X122452380Y-130347078D02*
X122357142Y-130537555D01*
X122357142Y-130537555D02*
X122357142Y-131585174D01*
X120547618Y-131585174D02*
X120547618Y-130537555D01*
X120547618Y-130537555D02*
X120642856Y-130347078D01*
X120642856Y-130347078D02*
X120833332Y-130251840D01*
X120833332Y-130251840D02*
X121214285Y-130251840D01*
X121214285Y-130251840D02*
X121404761Y-130347078D01*
X120547618Y-131489936D02*
X120738094Y-131585174D01*
X120738094Y-131585174D02*
X121214285Y-131585174D01*
X121214285Y-131585174D02*
X121404761Y-131489936D01*
X121404761Y-131489936D02*
X121499999Y-131299459D01*
X121499999Y-131299459D02*
X121499999Y-131108983D01*
X121499999Y-131108983D02*
X121404761Y-130918507D01*
X121404761Y-130918507D02*
X121214285Y-130823269D01*
X121214285Y-130823269D02*
X120738094Y-130823269D01*
X120738094Y-130823269D02*
X120547618Y-130728031D01*
X119309523Y-131585174D02*
X119499999Y-131489936D01*
X119499999Y-131489936D02*
X119595237Y-131299459D01*
X119595237Y-131299459D02*
X119595237Y-129585174D01*
X133357143Y-134614585D02*
X133452381Y-134709824D01*
X133452381Y-134709824D02*
X133738095Y-134805062D01*
X133738095Y-134805062D02*
X133928571Y-134805062D01*
X133928571Y-134805062D02*
X134214286Y-134709824D01*
X134214286Y-134709824D02*
X134404762Y-134519347D01*
X134404762Y-134519347D02*
X134500000Y-134328871D01*
X134500000Y-134328871D02*
X134595238Y-133947919D01*
X134595238Y-133947919D02*
X134595238Y-133662204D01*
X134595238Y-133662204D02*
X134500000Y-133281252D01*
X134500000Y-133281252D02*
X134404762Y-133090776D01*
X134404762Y-133090776D02*
X134214286Y-132900300D01*
X134214286Y-132900300D02*
X133928571Y-132805062D01*
X133928571Y-132805062D02*
X133738095Y-132805062D01*
X133738095Y-132805062D02*
X133452381Y-132900300D01*
X133452381Y-132900300D02*
X133357143Y-132995538D01*
X132214286Y-134805062D02*
X132404762Y-134709824D01*
X132404762Y-134709824D02*
X132500000Y-134614585D01*
X132500000Y-134614585D02*
X132595238Y-134424109D01*
X132595238Y-134424109D02*
X132595238Y-133852681D01*
X132595238Y-133852681D02*
X132500000Y-133662204D01*
X132500000Y-133662204D02*
X132404762Y-133566966D01*
X132404762Y-133566966D02*
X132214286Y-133471728D01*
X132214286Y-133471728D02*
X131928571Y-133471728D01*
X131928571Y-133471728D02*
X131738095Y-133566966D01*
X131738095Y-133566966D02*
X131642857Y-133662204D01*
X131642857Y-133662204D02*
X131547619Y-133852681D01*
X131547619Y-133852681D02*
X131547619Y-134424109D01*
X131547619Y-134424109D02*
X131642857Y-134614585D01*
X131642857Y-134614585D02*
X131738095Y-134709824D01*
X131738095Y-134709824D02*
X131928571Y-134805062D01*
X131928571Y-134805062D02*
X132214286Y-134805062D01*
X129833333Y-133471728D02*
X129833333Y-134805062D01*
X130690476Y-133471728D02*
X130690476Y-134519347D01*
X130690476Y-134519347D02*
X130595238Y-134709824D01*
X130595238Y-134709824D02*
X130404762Y-134805062D01*
X130404762Y-134805062D02*
X130119047Y-134805062D01*
X130119047Y-134805062D02*
X129928571Y-134709824D01*
X129928571Y-134709824D02*
X129833333Y-134614585D01*
X128880952Y-133471728D02*
X128880952Y-134805062D01*
X128880952Y-133662204D02*
X128785714Y-133566966D01*
X128785714Y-133566966D02*
X128595238Y-133471728D01*
X128595238Y-133471728D02*
X128309523Y-133471728D01*
X128309523Y-133471728D02*
X128119047Y-133566966D01*
X128119047Y-133566966D02*
X128023809Y-133757443D01*
X128023809Y-133757443D02*
X128023809Y-134805062D01*
X127357142Y-133471728D02*
X126595238Y-133471728D01*
X127071428Y-132805062D02*
X127071428Y-134519347D01*
X127071428Y-134519347D02*
X126976190Y-134709824D01*
X126976190Y-134709824D02*
X126785714Y-134805062D01*
X126785714Y-134805062D02*
X126595238Y-134805062D01*
X125166666Y-134709824D02*
X125357142Y-134805062D01*
X125357142Y-134805062D02*
X125738095Y-134805062D01*
X125738095Y-134805062D02*
X125928571Y-134709824D01*
X125928571Y-134709824D02*
X126023809Y-134519347D01*
X126023809Y-134519347D02*
X126023809Y-133757443D01*
X126023809Y-133757443D02*
X125928571Y-133566966D01*
X125928571Y-133566966D02*
X125738095Y-133471728D01*
X125738095Y-133471728D02*
X125357142Y-133471728D01*
X125357142Y-133471728D02*
X125166666Y-133566966D01*
X125166666Y-133566966D02*
X125071428Y-133757443D01*
X125071428Y-133757443D02*
X125071428Y-133947919D01*
X125071428Y-133947919D02*
X126023809Y-134138395D01*
X124214285Y-134805062D02*
X124214285Y-133471728D01*
X124214285Y-133852681D02*
X124119047Y-133662204D01*
X124119047Y-133662204D02*
X124023809Y-133566966D01*
X124023809Y-133566966D02*
X123833333Y-133471728D01*
X123833333Y-133471728D02*
X123642856Y-133471728D01*
X122976190Y-133471728D02*
X122976190Y-135471728D01*
X122976190Y-133566966D02*
X122785714Y-133471728D01*
X122785714Y-133471728D02*
X122404761Y-133471728D01*
X122404761Y-133471728D02*
X122214285Y-133566966D01*
X122214285Y-133566966D02*
X122119047Y-133662204D01*
X122119047Y-133662204D02*
X122023809Y-133852681D01*
X122023809Y-133852681D02*
X122023809Y-134424109D01*
X122023809Y-134424109D02*
X122119047Y-134614585D01*
X122119047Y-134614585D02*
X122214285Y-134709824D01*
X122214285Y-134709824D02*
X122404761Y-134805062D01*
X122404761Y-134805062D02*
X122785714Y-134805062D01*
X122785714Y-134805062D02*
X122976190Y-134709824D01*
X120880952Y-134805062D02*
X121071428Y-134709824D01*
X121071428Y-134709824D02*
X121166666Y-134614585D01*
X121166666Y-134614585D02*
X121261904Y-134424109D01*
X121261904Y-134424109D02*
X121261904Y-133852681D01*
X121261904Y-133852681D02*
X121166666Y-133662204D01*
X121166666Y-133662204D02*
X121071428Y-133566966D01*
X121071428Y-133566966D02*
X120880952Y-133471728D01*
X120880952Y-133471728D02*
X120595237Y-133471728D01*
X120595237Y-133471728D02*
X120404761Y-133566966D01*
X120404761Y-133566966D02*
X120309523Y-133662204D01*
X120309523Y-133662204D02*
X120214285Y-133852681D01*
X120214285Y-133852681D02*
X120214285Y-134424109D01*
X120214285Y-134424109D02*
X120309523Y-134614585D01*
X120309523Y-134614585D02*
X120404761Y-134709824D01*
X120404761Y-134709824D02*
X120595237Y-134805062D01*
X120595237Y-134805062D02*
X120880952Y-134805062D01*
X119357142Y-134805062D02*
X119357142Y-133471728D01*
X119357142Y-132805062D02*
X119452380Y-132900300D01*
X119452380Y-132900300D02*
X119357142Y-132995538D01*
X119357142Y-132995538D02*
X119261904Y-132900300D01*
X119261904Y-132900300D02*
X119357142Y-132805062D01*
X119357142Y-132805062D02*
X119357142Y-132995538D01*
X118499999Y-134709824D02*
X118309523Y-134805062D01*
X118309523Y-134805062D02*
X117928571Y-134805062D01*
X117928571Y-134805062D02*
X117738094Y-134709824D01*
X117738094Y-134709824D02*
X117642856Y-134519347D01*
X117642856Y-134519347D02*
X117642856Y-134424109D01*
X117642856Y-134424109D02*
X117738094Y-134233633D01*
X117738094Y-134233633D02*
X117928571Y-134138395D01*
X117928571Y-134138395D02*
X118214285Y-134138395D01*
X118214285Y-134138395D02*
X118404761Y-134043157D01*
X118404761Y-134043157D02*
X118499999Y-133852681D01*
X118499999Y-133852681D02*
X118499999Y-133757443D01*
X118499999Y-133757443D02*
X118404761Y-133566966D01*
X118404761Y-133566966D02*
X118214285Y-133471728D01*
X118214285Y-133471728D02*
X117928571Y-133471728D01*
X117928571Y-133471728D02*
X117738094Y-133566966D01*
X116023808Y-134709824D02*
X116214284Y-134805062D01*
X116214284Y-134805062D02*
X116595237Y-134805062D01*
X116595237Y-134805062D02*
X116785713Y-134709824D01*
X116785713Y-134709824D02*
X116880951Y-134519347D01*
X116880951Y-134519347D02*
X116880951Y-133757443D01*
X116880951Y-133757443D02*
X116785713Y-133566966D01*
X116785713Y-133566966D02*
X116595237Y-133471728D01*
X116595237Y-133471728D02*
X116214284Y-133471728D01*
X116214284Y-133471728D02*
X116023808Y-133566966D01*
X116023808Y-133566966D02*
X115928570Y-133757443D01*
X115928570Y-133757443D02*
X115928570Y-133947919D01*
X115928570Y-133947919D02*
X116880951Y-134138395D01*
X132880952Y-138024950D02*
X132880952Y-136977331D01*
X132880952Y-136977331D02*
X132976190Y-136786854D01*
X132976190Y-136786854D02*
X133166666Y-136691616D01*
X133166666Y-136691616D02*
X133547619Y-136691616D01*
X133547619Y-136691616D02*
X133738095Y-136786854D01*
X132880952Y-137929712D02*
X133071428Y-138024950D01*
X133071428Y-138024950D02*
X133547619Y-138024950D01*
X133547619Y-138024950D02*
X133738095Y-137929712D01*
X133738095Y-137929712D02*
X133833333Y-137739235D01*
X133833333Y-137739235D02*
X133833333Y-137548759D01*
X133833333Y-137548759D02*
X133738095Y-137358283D01*
X133738095Y-137358283D02*
X133547619Y-137263045D01*
X133547619Y-137263045D02*
X133071428Y-137263045D01*
X133071428Y-137263045D02*
X132880952Y-137167807D01*
X132214285Y-136691616D02*
X131452381Y-136691616D01*
X131928571Y-136024950D02*
X131928571Y-137739235D01*
X131928571Y-137739235D02*
X131833333Y-137929712D01*
X131833333Y-137929712D02*
X131642857Y-138024950D01*
X131642857Y-138024950D02*
X131452381Y-138024950D01*
X129261904Y-138024950D02*
X129261904Y-136024950D01*
X129261904Y-136024950D02*
X128595237Y-137453521D01*
X128595237Y-137453521D02*
X127928571Y-136024950D01*
X127928571Y-136024950D02*
X127928571Y-138024950D01*
X126690476Y-138024950D02*
X126880952Y-137929712D01*
X126880952Y-137929712D02*
X126976190Y-137834473D01*
X126976190Y-137834473D02*
X127071428Y-137643997D01*
X127071428Y-137643997D02*
X127071428Y-137072569D01*
X127071428Y-137072569D02*
X126976190Y-136882092D01*
X126976190Y-136882092D02*
X126880952Y-136786854D01*
X126880952Y-136786854D02*
X126690476Y-136691616D01*
X126690476Y-136691616D02*
X126404761Y-136691616D01*
X126404761Y-136691616D02*
X126214285Y-136786854D01*
X126214285Y-136786854D02*
X126119047Y-136882092D01*
X126119047Y-136882092D02*
X126023809Y-137072569D01*
X126023809Y-137072569D02*
X126023809Y-137643997D01*
X126023809Y-137643997D02*
X126119047Y-137834473D01*
X126119047Y-137834473D02*
X126214285Y-137929712D01*
X126214285Y-137929712D02*
X126404761Y-138024950D01*
X126404761Y-138024950D02*
X126690476Y-138024950D01*
X124309523Y-136691616D02*
X124309523Y-138024950D01*
X125166666Y-136691616D02*
X125166666Y-137739235D01*
X125166666Y-137739235D02*
X125071428Y-137929712D01*
X125071428Y-137929712D02*
X124880952Y-138024950D01*
X124880952Y-138024950D02*
X124595237Y-138024950D01*
X124595237Y-138024950D02*
X124404761Y-137929712D01*
X124404761Y-137929712D02*
X124309523Y-137834473D01*
X123357142Y-136691616D02*
X123357142Y-138024950D01*
X123357142Y-136882092D02*
X123261904Y-136786854D01*
X123261904Y-136786854D02*
X123071428Y-136691616D01*
X123071428Y-136691616D02*
X122785713Y-136691616D01*
X122785713Y-136691616D02*
X122595237Y-136786854D01*
X122595237Y-136786854D02*
X122499999Y-136977331D01*
X122499999Y-136977331D02*
X122499999Y-138024950D01*
X121833332Y-136691616D02*
X121071428Y-136691616D01*
X121547618Y-136024950D02*
X121547618Y-137739235D01*
X121547618Y-137739235D02*
X121452380Y-137929712D01*
X121452380Y-137929712D02*
X121261904Y-138024950D01*
X121261904Y-138024950D02*
X121071428Y-138024950D01*
X120404761Y-138024950D02*
X120404761Y-136691616D01*
X120404761Y-136024950D02*
X120499999Y-136120188D01*
X120499999Y-136120188D02*
X120404761Y-136215426D01*
X120404761Y-136215426D02*
X120309523Y-136120188D01*
X120309523Y-136120188D02*
X120404761Y-136024950D01*
X120404761Y-136024950D02*
X120404761Y-136215426D01*
X119452380Y-136691616D02*
X119452380Y-138024950D01*
X119452380Y-136882092D02*
X119357142Y-136786854D01*
X119357142Y-136786854D02*
X119166666Y-136691616D01*
X119166666Y-136691616D02*
X118880951Y-136691616D01*
X118880951Y-136691616D02*
X118690475Y-136786854D01*
X118690475Y-136786854D02*
X118595237Y-136977331D01*
X118595237Y-136977331D02*
X118595237Y-138024950D01*
X116785713Y-136691616D02*
X116785713Y-138310664D01*
X116785713Y-138310664D02*
X116880951Y-138501140D01*
X116880951Y-138501140D02*
X116976189Y-138596378D01*
X116976189Y-138596378D02*
X117166666Y-138691616D01*
X117166666Y-138691616D02*
X117452380Y-138691616D01*
X117452380Y-138691616D02*
X117642856Y-138596378D01*
X116785713Y-137929712D02*
X116976189Y-138024950D01*
X116976189Y-138024950D02*
X117357142Y-138024950D01*
X117357142Y-138024950D02*
X117547618Y-137929712D01*
X117547618Y-137929712D02*
X117642856Y-137834473D01*
X117642856Y-137834473D02*
X117738094Y-137643997D01*
X117738094Y-137643997D02*
X117738094Y-137072569D01*
X117738094Y-137072569D02*
X117642856Y-136882092D01*
X117642856Y-136882092D02*
X117547618Y-136786854D01*
X117547618Y-136786854D02*
X117357142Y-136691616D01*
X117357142Y-136691616D02*
X116976189Y-136691616D01*
X116976189Y-136691616D02*
X116785713Y-136786854D01*
X130690476Y-141244838D02*
X130690476Y-139244838D01*
X130690476Y-140197219D02*
X129547619Y-140197219D01*
X129547619Y-141244838D02*
X129547619Y-139244838D01*
X128309524Y-141244838D02*
X128500000Y-141149600D01*
X128500000Y-141149600D02*
X128595238Y-141054361D01*
X128595238Y-141054361D02*
X128690476Y-140863885D01*
X128690476Y-140863885D02*
X128690476Y-140292457D01*
X128690476Y-140292457D02*
X128595238Y-140101980D01*
X128595238Y-140101980D02*
X128500000Y-140006742D01*
X128500000Y-140006742D02*
X128309524Y-139911504D01*
X128309524Y-139911504D02*
X128023809Y-139911504D01*
X128023809Y-139911504D02*
X127833333Y-140006742D01*
X127833333Y-140006742D02*
X127738095Y-140101980D01*
X127738095Y-140101980D02*
X127642857Y-140292457D01*
X127642857Y-140292457D02*
X127642857Y-140863885D01*
X127642857Y-140863885D02*
X127738095Y-141054361D01*
X127738095Y-141054361D02*
X127833333Y-141149600D01*
X127833333Y-141149600D02*
X128023809Y-141244838D01*
X128023809Y-141244838D02*
X128309524Y-141244838D01*
X126500000Y-141244838D02*
X126690476Y-141149600D01*
X126690476Y-141149600D02*
X126785714Y-140959123D01*
X126785714Y-140959123D02*
X126785714Y-139244838D01*
X124976190Y-141149600D02*
X125166666Y-141244838D01*
X125166666Y-141244838D02*
X125547619Y-141244838D01*
X125547619Y-141244838D02*
X125738095Y-141149600D01*
X125738095Y-141149600D02*
X125833333Y-140959123D01*
X125833333Y-140959123D02*
X125833333Y-140197219D01*
X125833333Y-140197219D02*
X125738095Y-140006742D01*
X125738095Y-140006742D02*
X125547619Y-139911504D01*
X125547619Y-139911504D02*
X125166666Y-139911504D01*
X125166666Y-139911504D02*
X124976190Y-140006742D01*
X124976190Y-140006742D02*
X124880952Y-140197219D01*
X124880952Y-140197219D02*
X124880952Y-140387695D01*
X124880952Y-140387695D02*
X125833333Y-140578171D01*
X124119047Y-141149600D02*
X123928571Y-141244838D01*
X123928571Y-141244838D02*
X123547619Y-141244838D01*
X123547619Y-141244838D02*
X123357142Y-141149600D01*
X123357142Y-141149600D02*
X123261904Y-140959123D01*
X123261904Y-140959123D02*
X123261904Y-140863885D01*
X123261904Y-140863885D02*
X123357142Y-140673409D01*
X123357142Y-140673409D02*
X123547619Y-140578171D01*
X123547619Y-140578171D02*
X123833333Y-140578171D01*
X123833333Y-140578171D02*
X124023809Y-140482933D01*
X124023809Y-140482933D02*
X124119047Y-140292457D01*
X124119047Y-140292457D02*
X124119047Y-140197219D01*
X124119047Y-140197219D02*
X124023809Y-140006742D01*
X124023809Y-140006742D02*
X123833333Y-139911504D01*
X123833333Y-139911504D02*
X123547619Y-139911504D01*
X123547619Y-139911504D02*
X123357142Y-140006742D01*
X121071427Y-141244838D02*
X120023808Y-139911504D01*
X121071427Y-139911504D02*
X120023808Y-141244838D01*
X118404760Y-139911504D02*
X118404760Y-141244838D01*
X118880951Y-139149600D02*
X119357141Y-140578171D01*
X119357141Y-140578171D02*
X118119046Y-140578171D01*
X146333333Y-85805062D02*
X146333333Y-83805062D01*
X146333333Y-83805062D02*
X145571428Y-83805062D01*
X145571428Y-83805062D02*
X145380952Y-83900300D01*
X145380952Y-83900300D02*
X145285714Y-83995538D01*
X145285714Y-83995538D02*
X145190476Y-84186014D01*
X145190476Y-84186014D02*
X145190476Y-84471728D01*
X145190476Y-84471728D02*
X145285714Y-84662204D01*
X145285714Y-84662204D02*
X145380952Y-84757443D01*
X145380952Y-84757443D02*
X145571428Y-84852681D01*
X145571428Y-84852681D02*
X146333333Y-84852681D01*
X144428571Y-85233633D02*
X143476190Y-85233633D01*
X144619047Y-85805062D02*
X143952381Y-83805062D01*
X143952381Y-83805062D02*
X143285714Y-85805062D01*
X141476190Y-85805062D02*
X142142857Y-84852681D01*
X142619047Y-85805062D02*
X142619047Y-83805062D01*
X142619047Y-83805062D02*
X141857142Y-83805062D01*
X141857142Y-83805062D02*
X141666666Y-83900300D01*
X141666666Y-83900300D02*
X141571428Y-83995538D01*
X141571428Y-83995538D02*
X141476190Y-84186014D01*
X141476190Y-84186014D02*
X141476190Y-84471728D01*
X141476190Y-84471728D02*
X141571428Y-84662204D01*
X141571428Y-84662204D02*
X141666666Y-84757443D01*
X141666666Y-84757443D02*
X141857142Y-84852681D01*
X141857142Y-84852681D02*
X142619047Y-84852681D01*
X140619047Y-85805062D02*
X140619047Y-83805062D01*
X139476190Y-85805062D02*
X140333333Y-84662204D01*
X139476190Y-83805062D02*
X140619047Y-84947919D01*
X138714285Y-85709824D02*
X138428571Y-85805062D01*
X138428571Y-85805062D02*
X137952380Y-85805062D01*
X137952380Y-85805062D02*
X137761904Y-85709824D01*
X137761904Y-85709824D02*
X137666666Y-85614585D01*
X137666666Y-85614585D02*
X137571428Y-85424109D01*
X137571428Y-85424109D02*
X137571428Y-85233633D01*
X137571428Y-85233633D02*
X137666666Y-85043157D01*
X137666666Y-85043157D02*
X137761904Y-84947919D01*
X137761904Y-84947919D02*
X137952380Y-84852681D01*
X137952380Y-84852681D02*
X138333333Y-84757443D01*
X138333333Y-84757443D02*
X138523809Y-84662204D01*
X138523809Y-84662204D02*
X138619047Y-84566966D01*
X138619047Y-84566966D02*
X138714285Y-84376490D01*
X138714285Y-84376490D02*
X138714285Y-84186014D01*
X138714285Y-84186014D02*
X138619047Y-83995538D01*
X138619047Y-83995538D02*
X138523809Y-83900300D01*
X138523809Y-83900300D02*
X138333333Y-83805062D01*
X138333333Y-83805062D02*
X137857142Y-83805062D01*
X137857142Y-83805062D02*
X137571428Y-83900300D01*
X136714285Y-85043157D02*
X135190476Y-85043157D01*
X134238095Y-84757443D02*
X133571428Y-84757443D01*
X133285714Y-85805062D02*
X134238095Y-85805062D01*
X134238095Y-85805062D02*
X134238095Y-83805062D01*
X134238095Y-83805062D02*
X133285714Y-83805062D01*
X131761904Y-84757443D02*
X132428571Y-84757443D01*
X132428571Y-85805062D02*
X132428571Y-83805062D01*
X132428571Y-83805062D02*
X131476190Y-83805062D01*
X130714285Y-85805062D02*
X130714285Y-83805062D01*
X130714285Y-84757443D02*
X129571428Y-84757443D01*
X129571428Y-85805062D02*
X129571428Y-83805062D01*
X128809523Y-83805062D02*
X128333333Y-85805062D01*
X128333333Y-85805062D02*
X127952380Y-84376490D01*
X127952380Y-84376490D02*
X127571428Y-85805062D01*
X127571428Y-85805062D02*
X127095238Y-83805062D01*
X125476190Y-84471728D02*
X125476190Y-85805062D01*
X125952381Y-83709824D02*
X126428571Y-85138395D01*
X126428571Y-85138395D02*
X125190476Y-85138395D01*
X124047619Y-83805062D02*
X123857142Y-83805062D01*
X123857142Y-83805062D02*
X123666666Y-83900300D01*
X123666666Y-83900300D02*
X123571428Y-83995538D01*
X123571428Y-83995538D02*
X123476190Y-84186014D01*
X123476190Y-84186014D02*
X123380952Y-84566966D01*
X123380952Y-84566966D02*
X123380952Y-85043157D01*
X123380952Y-85043157D02*
X123476190Y-85424109D01*
X123476190Y-85424109D02*
X123571428Y-85614585D01*
X123571428Y-85614585D02*
X123666666Y-85709824D01*
X123666666Y-85709824D02*
X123857142Y-85805062D01*
X123857142Y-85805062D02*
X124047619Y-85805062D01*
X124047619Y-85805062D02*
X124238095Y-85709824D01*
X124238095Y-85709824D02*
X124333333Y-85614585D01*
X124333333Y-85614585D02*
X124428571Y-85424109D01*
X124428571Y-85424109D02*
X124523809Y-85043157D01*
X124523809Y-85043157D02*
X124523809Y-84566966D01*
X124523809Y-84566966D02*
X124428571Y-84186014D01*
X124428571Y-84186014D02*
X124333333Y-83995538D01*
X124333333Y-83995538D02*
X124238095Y-83900300D01*
X124238095Y-83900300D02*
X124047619Y-83805062D01*
X121476190Y-85805062D02*
X122619047Y-85805062D01*
X122047619Y-85805062D02*
X122047619Y-83805062D01*
X122047619Y-83805062D02*
X122238095Y-84090776D01*
X122238095Y-84090776D02*
X122428571Y-84281252D01*
X122428571Y-84281252D02*
X122619047Y-84376490D01*
X120238095Y-83805062D02*
X120047618Y-83805062D01*
X120047618Y-83805062D02*
X119857142Y-83900300D01*
X119857142Y-83900300D02*
X119761904Y-83995538D01*
X119761904Y-83995538D02*
X119666666Y-84186014D01*
X119666666Y-84186014D02*
X119571428Y-84566966D01*
X119571428Y-84566966D02*
X119571428Y-85043157D01*
X119571428Y-85043157D02*
X119666666Y-85424109D01*
X119666666Y-85424109D02*
X119761904Y-85614585D01*
X119761904Y-85614585D02*
X119857142Y-85709824D01*
X119857142Y-85709824D02*
X120047618Y-85805062D01*
X120047618Y-85805062D02*
X120238095Y-85805062D01*
X120238095Y-85805062D02*
X120428571Y-85709824D01*
X120428571Y-85709824D02*
X120523809Y-85614585D01*
X120523809Y-85614585D02*
X120619047Y-85424109D01*
X120619047Y-85424109D02*
X120714285Y-85043157D01*
X120714285Y-85043157D02*
X120714285Y-84566966D01*
X120714285Y-84566966D02*
X120619047Y-84186014D01*
X120619047Y-84186014D02*
X120523809Y-83995538D01*
X120523809Y-83995538D02*
X120428571Y-83900300D01*
X120428571Y-83900300D02*
X120238095Y-83805062D01*
X152952382Y-87691616D02*
X152952382Y-89024950D01*
X153428573Y-86929712D02*
X153904763Y-88358283D01*
X153904763Y-88358283D02*
X152666668Y-88358283D01*
X151523811Y-87024950D02*
X151333334Y-87024950D01*
X151333334Y-87024950D02*
X151142858Y-87120188D01*
X151142858Y-87120188D02*
X151047620Y-87215426D01*
X151047620Y-87215426D02*
X150952382Y-87405902D01*
X150952382Y-87405902D02*
X150857144Y-87786854D01*
X150857144Y-87786854D02*
X150857144Y-88263045D01*
X150857144Y-88263045D02*
X150952382Y-88643997D01*
X150952382Y-88643997D02*
X151047620Y-88834473D01*
X151047620Y-88834473D02*
X151142858Y-88929712D01*
X151142858Y-88929712D02*
X151333334Y-89024950D01*
X151333334Y-89024950D02*
X151523811Y-89024950D01*
X151523811Y-89024950D02*
X151714287Y-88929712D01*
X151714287Y-88929712D02*
X151809525Y-88834473D01*
X151809525Y-88834473D02*
X151904763Y-88643997D01*
X151904763Y-88643997D02*
X152000001Y-88263045D01*
X152000001Y-88263045D02*
X152000001Y-87786854D01*
X152000001Y-87786854D02*
X151904763Y-87405902D01*
X151904763Y-87405902D02*
X151809525Y-87215426D01*
X151809525Y-87215426D02*
X151714287Y-87120188D01*
X151714287Y-87120188D02*
X151523811Y-87024950D01*
X150000001Y-88263045D02*
X148476192Y-88263045D01*
X146476192Y-89024950D02*
X147619049Y-89024950D01*
X147047621Y-89024950D02*
X147047621Y-87024950D01*
X147047621Y-87024950D02*
X147238097Y-87310664D01*
X147238097Y-87310664D02*
X147428573Y-87501140D01*
X147428573Y-87501140D02*
X147619049Y-87596378D01*
X145238097Y-87024950D02*
X145047620Y-87024950D01*
X145047620Y-87024950D02*
X144857144Y-87120188D01*
X144857144Y-87120188D02*
X144761906Y-87215426D01*
X144761906Y-87215426D02*
X144666668Y-87405902D01*
X144666668Y-87405902D02*
X144571430Y-87786854D01*
X144571430Y-87786854D02*
X144571430Y-88263045D01*
X144571430Y-88263045D02*
X144666668Y-88643997D01*
X144666668Y-88643997D02*
X144761906Y-88834473D01*
X144761906Y-88834473D02*
X144857144Y-88929712D01*
X144857144Y-88929712D02*
X145047620Y-89024950D01*
X145047620Y-89024950D02*
X145238097Y-89024950D01*
X145238097Y-89024950D02*
X145428573Y-88929712D01*
X145428573Y-88929712D02*
X145523811Y-88834473D01*
X145523811Y-88834473D02*
X145619049Y-88643997D01*
X145619049Y-88643997D02*
X145714287Y-88263045D01*
X145714287Y-88263045D02*
X145714287Y-87786854D01*
X145714287Y-87786854D02*
X145619049Y-87405902D01*
X145619049Y-87405902D02*
X145523811Y-87215426D01*
X145523811Y-87215426D02*
X145428573Y-87120188D01*
X145428573Y-87120188D02*
X145238097Y-87024950D01*
X143714287Y-89024950D02*
X143714287Y-87024950D01*
X143714287Y-87024950D02*
X143047620Y-88453521D01*
X143047620Y-88453521D02*
X142380954Y-87024950D01*
X142380954Y-87024950D02*
X142380954Y-89024950D01*
X139904763Y-87977331D02*
X139238096Y-87977331D01*
X138952382Y-89024950D02*
X139904763Y-89024950D01*
X139904763Y-89024950D02*
X139904763Y-87024950D01*
X139904763Y-87024950D02*
X138952382Y-87024950D01*
X138095239Y-87691616D02*
X138095239Y-89024950D01*
X138095239Y-87882092D02*
X138000001Y-87786854D01*
X138000001Y-87786854D02*
X137809525Y-87691616D01*
X137809525Y-87691616D02*
X137523810Y-87691616D01*
X137523810Y-87691616D02*
X137333334Y-87786854D01*
X137333334Y-87786854D02*
X137238096Y-87977331D01*
X137238096Y-87977331D02*
X137238096Y-89024950D01*
X135428572Y-89024950D02*
X135428572Y-87024950D01*
X135428572Y-88929712D02*
X135619048Y-89024950D01*
X135619048Y-89024950D02*
X136000001Y-89024950D01*
X136000001Y-89024950D02*
X136190477Y-88929712D01*
X136190477Y-88929712D02*
X136285715Y-88834473D01*
X136285715Y-88834473D02*
X136380953Y-88643997D01*
X136380953Y-88643997D02*
X136380953Y-88072569D01*
X136380953Y-88072569D02*
X136285715Y-87882092D01*
X136285715Y-87882092D02*
X136190477Y-87786854D01*
X136190477Y-87786854D02*
X136000001Y-87691616D01*
X136000001Y-87691616D02*
X135619048Y-87691616D01*
X135619048Y-87691616D02*
X135428572Y-87786854D01*
X132285714Y-87977331D02*
X132952381Y-87977331D01*
X132952381Y-89024950D02*
X132952381Y-87024950D01*
X132952381Y-87024950D02*
X132000000Y-87024950D01*
X130476190Y-88929712D02*
X130666666Y-89024950D01*
X130666666Y-89024950D02*
X131047619Y-89024950D01*
X131047619Y-89024950D02*
X131238095Y-88929712D01*
X131238095Y-88929712D02*
X131333333Y-88739235D01*
X131333333Y-88739235D02*
X131333333Y-87977331D01*
X131333333Y-87977331D02*
X131238095Y-87786854D01*
X131238095Y-87786854D02*
X131047619Y-87691616D01*
X131047619Y-87691616D02*
X130666666Y-87691616D01*
X130666666Y-87691616D02*
X130476190Y-87786854D01*
X130476190Y-87786854D02*
X130380952Y-87977331D01*
X130380952Y-87977331D02*
X130380952Y-88167807D01*
X130380952Y-88167807D02*
X131333333Y-88358283D01*
X128666666Y-89024950D02*
X128666666Y-87024950D01*
X128666666Y-88929712D02*
X128857142Y-89024950D01*
X128857142Y-89024950D02*
X129238095Y-89024950D01*
X129238095Y-89024950D02*
X129428571Y-88929712D01*
X129428571Y-88929712D02*
X129523809Y-88834473D01*
X129523809Y-88834473D02*
X129619047Y-88643997D01*
X129619047Y-88643997D02*
X129619047Y-88072569D01*
X129619047Y-88072569D02*
X129523809Y-87882092D01*
X129523809Y-87882092D02*
X129428571Y-87786854D01*
X129428571Y-87786854D02*
X129238095Y-87691616D01*
X129238095Y-87691616D02*
X128857142Y-87691616D01*
X128857142Y-87691616D02*
X128666666Y-87786854D01*
X126190475Y-89024950D02*
X126190475Y-87024950D01*
X126190475Y-87977331D02*
X125047618Y-87977331D01*
X125047618Y-89024950D02*
X125047618Y-87024950D01*
X123238094Y-89024950D02*
X123238094Y-87977331D01*
X123238094Y-87977331D02*
X123333332Y-87786854D01*
X123333332Y-87786854D02*
X123523808Y-87691616D01*
X123523808Y-87691616D02*
X123904761Y-87691616D01*
X123904761Y-87691616D02*
X124095237Y-87786854D01*
X123238094Y-88929712D02*
X123428570Y-89024950D01*
X123428570Y-89024950D02*
X123904761Y-89024950D01*
X123904761Y-89024950D02*
X124095237Y-88929712D01*
X124095237Y-88929712D02*
X124190475Y-88739235D01*
X124190475Y-88739235D02*
X124190475Y-88548759D01*
X124190475Y-88548759D02*
X124095237Y-88358283D01*
X124095237Y-88358283D02*
X123904761Y-88263045D01*
X123904761Y-88263045D02*
X123428570Y-88263045D01*
X123428570Y-88263045D02*
X123238094Y-88167807D01*
X121999999Y-89024950D02*
X122190475Y-88929712D01*
X122190475Y-88929712D02*
X122285713Y-88739235D01*
X122285713Y-88739235D02*
X122285713Y-87024950D01*
X121523808Y-87691616D02*
X120761904Y-87691616D01*
X121238094Y-89024950D02*
X121238094Y-87310664D01*
X121238094Y-87310664D02*
X121142856Y-87120188D01*
X121142856Y-87120188D02*
X120952380Y-87024950D01*
X120952380Y-87024950D02*
X120761904Y-87024950D01*
X118761903Y-87024950D02*
X118285713Y-89024950D01*
X118285713Y-89024950D02*
X117904760Y-87596378D01*
X117904760Y-87596378D02*
X117523808Y-89024950D01*
X117523808Y-89024950D02*
X117047618Y-87024950D01*
X115428570Y-89024950D02*
X115428570Y-87977331D01*
X115428570Y-87977331D02*
X115523808Y-87786854D01*
X115523808Y-87786854D02*
X115714284Y-87691616D01*
X115714284Y-87691616D02*
X116095237Y-87691616D01*
X116095237Y-87691616D02*
X116285713Y-87786854D01*
X115428570Y-88929712D02*
X115619046Y-89024950D01*
X115619046Y-89024950D02*
X116095237Y-89024950D01*
X116095237Y-89024950D02*
X116285713Y-88929712D01*
X116285713Y-88929712D02*
X116380951Y-88739235D01*
X116380951Y-88739235D02*
X116380951Y-88548759D01*
X116380951Y-88548759D02*
X116285713Y-88358283D01*
X116285713Y-88358283D02*
X116095237Y-88263045D01*
X116095237Y-88263045D02*
X115619046Y-88263045D01*
X115619046Y-88263045D02*
X115428570Y-88167807D01*
X114666665Y-87691616D02*
X114190475Y-89024950D01*
X114190475Y-89024950D02*
X113714284Y-87691616D01*
X112190474Y-88929712D02*
X112380950Y-89024950D01*
X112380950Y-89024950D02*
X112761903Y-89024950D01*
X112761903Y-89024950D02*
X112952379Y-88929712D01*
X112952379Y-88929712D02*
X113047617Y-88739235D01*
X113047617Y-88739235D02*
X113047617Y-87977331D01*
X113047617Y-87977331D02*
X112952379Y-87786854D01*
X112952379Y-87786854D02*
X112761903Y-87691616D01*
X112761903Y-87691616D02*
X112380950Y-87691616D01*
X112380950Y-87691616D02*
X112190474Y-87786854D01*
X112190474Y-87786854D02*
X112095236Y-87977331D01*
X112095236Y-87977331D02*
X112095236Y-88167807D01*
X112095236Y-88167807D02*
X113047617Y-88358283D01*
X138523809Y-91673409D02*
X137571428Y-91673409D01*
X138714285Y-92244838D02*
X138047619Y-90244838D01*
X138047619Y-90244838D02*
X137380952Y-92244838D01*
X136714285Y-90911504D02*
X136714285Y-92244838D01*
X136714285Y-91101980D02*
X136619047Y-91006742D01*
X136619047Y-91006742D02*
X136428571Y-90911504D01*
X136428571Y-90911504D02*
X136142856Y-90911504D01*
X136142856Y-90911504D02*
X135952380Y-91006742D01*
X135952380Y-91006742D02*
X135857142Y-91197219D01*
X135857142Y-91197219D02*
X135857142Y-92244838D01*
X135190475Y-90911504D02*
X134428571Y-90911504D01*
X134904761Y-90244838D02*
X134904761Y-91959123D01*
X134904761Y-91959123D02*
X134809523Y-92149600D01*
X134809523Y-92149600D02*
X134619047Y-92244838D01*
X134619047Y-92244838D02*
X134428571Y-92244838D01*
X132999999Y-92149600D02*
X133190475Y-92244838D01*
X133190475Y-92244838D02*
X133571428Y-92244838D01*
X133571428Y-92244838D02*
X133761904Y-92149600D01*
X133761904Y-92149600D02*
X133857142Y-91959123D01*
X133857142Y-91959123D02*
X133857142Y-91197219D01*
X133857142Y-91197219D02*
X133761904Y-91006742D01*
X133761904Y-91006742D02*
X133571428Y-90911504D01*
X133571428Y-90911504D02*
X133190475Y-90911504D01*
X133190475Y-90911504D02*
X132999999Y-91006742D01*
X132999999Y-91006742D02*
X132904761Y-91197219D01*
X132904761Y-91197219D02*
X132904761Y-91387695D01*
X132904761Y-91387695D02*
X133857142Y-91578171D01*
X132047618Y-90911504D02*
X132047618Y-92244838D01*
X132047618Y-91101980D02*
X131952380Y-91006742D01*
X131952380Y-91006742D02*
X131761904Y-90911504D01*
X131761904Y-90911504D02*
X131476189Y-90911504D01*
X131476189Y-90911504D02*
X131285713Y-91006742D01*
X131285713Y-91006742D02*
X131190475Y-91197219D01*
X131190475Y-91197219D02*
X131190475Y-92244838D01*
X130238094Y-90911504D02*
X130238094Y-92244838D01*
X130238094Y-91101980D02*
X130142856Y-91006742D01*
X130142856Y-91006742D02*
X129952380Y-90911504D01*
X129952380Y-90911504D02*
X129666665Y-90911504D01*
X129666665Y-90911504D02*
X129476189Y-91006742D01*
X129476189Y-91006742D02*
X129380951Y-91197219D01*
X129380951Y-91197219D02*
X129380951Y-92244838D01*
X127571427Y-92244838D02*
X127571427Y-91197219D01*
X127571427Y-91197219D02*
X127666665Y-91006742D01*
X127666665Y-91006742D02*
X127857141Y-90911504D01*
X127857141Y-90911504D02*
X128238094Y-90911504D01*
X128238094Y-90911504D02*
X128428570Y-91006742D01*
X127571427Y-92149600D02*
X127761903Y-92244838D01*
X127761903Y-92244838D02*
X128238094Y-92244838D01*
X128238094Y-92244838D02*
X128428570Y-92149600D01*
X128428570Y-92149600D02*
X128523808Y-91959123D01*
X128523808Y-91959123D02*
X128523808Y-91768647D01*
X128523808Y-91768647D02*
X128428570Y-91578171D01*
X128428570Y-91578171D02*
X128238094Y-91482933D01*
X128238094Y-91482933D02*
X127761903Y-91482933D01*
X127761903Y-91482933D02*
X127571427Y-91387695D01*
D11*
%TO.C,REF\u002A\u002A*%
X61607842Y-113379381D02*
X61668889Y-113398439D01*
X61744069Y-113430115D01*
X61780469Y-113447138D01*
X61806740Y-113450215D01*
X61812549Y-113426620D01*
X61812555Y-113425952D01*
X61824856Y-113403426D01*
X61867281Y-113391879D01*
X61949510Y-113388628D01*
X62086471Y-113388628D01*
X62086471Y-114583922D01*
X61812549Y-114583922D01*
X61812549Y-113759779D01*
X61744454Y-113696670D01*
X61723180Y-113678735D01*
X61659811Y-113648091D01*
X61581776Y-113646863D01*
X61475520Y-113673903D01*
X61439701Y-113675615D01*
X61397683Y-113649383D01*
X61341757Y-113587035D01*
X61314628Y-113552547D01*
X61282543Y-113503852D01*
X61277599Y-113472855D01*
X61295563Y-113446707D01*
X61350710Y-113413641D01*
X61436363Y-113387472D01*
X61529292Y-113374496D01*
X61607842Y-113379381D01*
G36*
X61607842Y-113379381D02*
G01*
X61668889Y-113398439D01*
X61744069Y-113430115D01*
X61780469Y-113447138D01*
X61806740Y-113450215D01*
X61812549Y-113426620D01*
X61812555Y-113425952D01*
X61824856Y-113403426D01*
X61867281Y-113391879D01*
X61949510Y-113388628D01*
X62086471Y-113388628D01*
X62086471Y-114583922D01*
X61812549Y-114583922D01*
X61812549Y-113759779D01*
X61744454Y-113696670D01*
X61723180Y-113678735D01*
X61659811Y-113648091D01*
X61581776Y-113646863D01*
X61475520Y-113673903D01*
X61439701Y-113675615D01*
X61397683Y-113649383D01*
X61341757Y-113587035D01*
X61314628Y-113552547D01*
X61282543Y-113503852D01*
X61277599Y-113472855D01*
X61295563Y-113446707D01*
X61350710Y-113413641D01*
X61436363Y-113387472D01*
X61529292Y-113374496D01*
X61607842Y-113379381D01*
G37*
X61970525Y-115272675D02*
X62045760Y-115307886D01*
X62111373Y-115359497D01*
X62111373Y-115307886D01*
X62113008Y-115288290D01*
X62128221Y-115267513D01*
X62169362Y-115258337D01*
X62248334Y-115256275D01*
X62385295Y-115256275D01*
X62385295Y-116476471D01*
X62111373Y-116476471D01*
X62111373Y-116079211D01*
X62111340Y-116056405D01*
X62109003Y-115896089D01*
X62103268Y-115765500D01*
X62094544Y-115671314D01*
X62083241Y-115620208D01*
X62072862Y-115600915D01*
X62008968Y-115540406D01*
X61921937Y-115513622D01*
X61826904Y-115526117D01*
X61803594Y-115534586D01*
X61753937Y-115549555D01*
X61719999Y-115544907D01*
X61685850Y-115514479D01*
X61635559Y-115452111D01*
X61553992Y-115349123D01*
X61611323Y-115302699D01*
X61665823Y-115274755D01*
X61761554Y-115255883D01*
X61869456Y-115255265D01*
X61970525Y-115272675D01*
G36*
X61970525Y-115272675D02*
G01*
X62045760Y-115307886D01*
X62111373Y-115359497D01*
X62111373Y-115307886D01*
X62113008Y-115288290D01*
X62128221Y-115267513D01*
X62169362Y-115258337D01*
X62248334Y-115256275D01*
X62385295Y-115256275D01*
X62385295Y-116476471D01*
X62111373Y-116476471D01*
X62111373Y-116079211D01*
X62111340Y-116056405D01*
X62109003Y-115896089D01*
X62103268Y-115765500D01*
X62094544Y-115671314D01*
X62083241Y-115620208D01*
X62072862Y-115600915D01*
X62008968Y-115540406D01*
X61921937Y-115513622D01*
X61826904Y-115526117D01*
X61803594Y-115534586D01*
X61753937Y-115549555D01*
X61719999Y-115544907D01*
X61685850Y-115514479D01*
X61635559Y-115452111D01*
X61553992Y-115349123D01*
X61611323Y-115302699D01*
X61665823Y-115274755D01*
X61761554Y-115255883D01*
X61869456Y-115255265D01*
X61970525Y-115272675D01*
G37*
X67166471Y-116476471D02*
X66917451Y-116476471D01*
X66917451Y-116092111D01*
X66917176Y-116002706D01*
X66914344Y-115854629D01*
X66907176Y-115745003D01*
X66894116Y-115666252D01*
X66873608Y-115610798D01*
X66844098Y-115571061D01*
X66804031Y-115539465D01*
X66760290Y-115515921D01*
X66708496Y-115509246D01*
X66634831Y-115524090D01*
X66611159Y-115530271D01*
X66552069Y-115539572D01*
X66509818Y-115526245D01*
X66460848Y-115484996D01*
X66451555Y-115476026D01*
X66400179Y-115420534D01*
X66367047Y-115375415D01*
X66362502Y-115364545D01*
X66371508Y-115324409D01*
X66417174Y-115292320D01*
X66489246Y-115269799D01*
X66577471Y-115258367D01*
X66671594Y-115259544D01*
X66761362Y-115274850D01*
X66836520Y-115305806D01*
X66860343Y-115320260D01*
X66900449Y-115341417D01*
X66915296Y-115336572D01*
X66917451Y-115305712D01*
X66917957Y-115294633D01*
X66929970Y-115270091D01*
X66967236Y-115258921D01*
X67041961Y-115256275D01*
X67166471Y-115256275D01*
X67166471Y-116476471D01*
G36*
X67166471Y-116476471D02*
G01*
X66917451Y-116476471D01*
X66917451Y-116092111D01*
X66917176Y-116002706D01*
X66914344Y-115854629D01*
X66907176Y-115745003D01*
X66894116Y-115666252D01*
X66873608Y-115610798D01*
X66844098Y-115571061D01*
X66804031Y-115539465D01*
X66760290Y-115515921D01*
X66708496Y-115509246D01*
X66634831Y-115524090D01*
X66611159Y-115530271D01*
X66552069Y-115539572D01*
X66509818Y-115526245D01*
X66460848Y-115484996D01*
X66451555Y-115476026D01*
X66400179Y-115420534D01*
X66367047Y-115375415D01*
X66362502Y-115364545D01*
X66371508Y-115324409D01*
X66417174Y-115292320D01*
X66489246Y-115269799D01*
X66577471Y-115258367D01*
X66671594Y-115259544D01*
X66761362Y-115274850D01*
X66836520Y-115305806D01*
X66860343Y-115320260D01*
X66900449Y-115341417D01*
X66915296Y-115336572D01*
X66917451Y-115305712D01*
X66917957Y-115294633D01*
X66929970Y-115270091D01*
X66967236Y-115258921D01*
X67041961Y-115256275D01*
X67166471Y-115256275D01*
X67166471Y-116476471D01*
G37*
X62584510Y-113776245D02*
X62586611Y-113950624D01*
X62594833Y-114091460D01*
X62611491Y-114193825D01*
X62638891Y-114263458D01*
X62679343Y-114306093D01*
X62735152Y-114327468D01*
X62808628Y-114333318D01*
X62878783Y-114328097D01*
X62935443Y-114307659D01*
X62976626Y-114266254D01*
X63004640Y-114198147D01*
X63021793Y-114097600D01*
X63030392Y-113958879D01*
X63032746Y-113776245D01*
X63032746Y-113388628D01*
X63281765Y-113388628D01*
X63281765Y-113855928D01*
X63281338Y-113980659D01*
X63278018Y-114141955D01*
X63269687Y-114264965D01*
X63254326Y-114356729D01*
X63229919Y-114424291D01*
X63194447Y-114474691D01*
X63145892Y-114514971D01*
X63082235Y-114552174D01*
X62948562Y-114599270D01*
X62809055Y-114602342D01*
X62677524Y-114558971D01*
X62620135Y-114530857D01*
X62591664Y-114526654D01*
X62584510Y-114546520D01*
X62572632Y-114568826D01*
X62530116Y-114580576D01*
X62447549Y-114583922D01*
X62310589Y-114583922D01*
X62310589Y-113388628D01*
X62584510Y-113388628D01*
X62584510Y-113776245D01*
G36*
X62584510Y-113776245D02*
G01*
X62586611Y-113950624D01*
X62594833Y-114091460D01*
X62611491Y-114193825D01*
X62638891Y-114263458D01*
X62679343Y-114306093D01*
X62735152Y-114327468D01*
X62808628Y-114333318D01*
X62878783Y-114328097D01*
X62935443Y-114307659D01*
X62976626Y-114266254D01*
X63004640Y-114198147D01*
X63021793Y-114097600D01*
X63030392Y-113958879D01*
X63032746Y-113776245D01*
X63032746Y-113388628D01*
X63281765Y-113388628D01*
X63281765Y-113855928D01*
X63281338Y-113980659D01*
X63278018Y-114141955D01*
X63269687Y-114264965D01*
X63254326Y-114356729D01*
X63229919Y-114424291D01*
X63194447Y-114474691D01*
X63145892Y-114514971D01*
X63082235Y-114552174D01*
X62948562Y-114599270D01*
X62809055Y-114602342D01*
X62677524Y-114558971D01*
X62620135Y-114530857D01*
X62591664Y-114526654D01*
X62584510Y-114546520D01*
X62572632Y-114568826D01*
X62530116Y-114580576D01*
X62447549Y-114583922D01*
X62310589Y-114583922D01*
X62310589Y-113388628D01*
X62584510Y-113388628D01*
X62584510Y-113776245D01*
G37*
X66747906Y-113386271D02*
X66861422Y-113421937D01*
X66911473Y-113446177D01*
X66936646Y-113448681D01*
X66942353Y-113426620D01*
X66942359Y-113425952D01*
X66954660Y-113403426D01*
X66997084Y-113391879D01*
X67079314Y-113388628D01*
X67216275Y-113388628D01*
X67216275Y-114583922D01*
X66942353Y-114583922D01*
X66942353Y-114171907D01*
X66942166Y-114032779D01*
X66940885Y-113918493D01*
X66937458Y-113838519D01*
X66930832Y-113784708D01*
X66919954Y-113748912D01*
X66903771Y-113722982D01*
X66881230Y-113698770D01*
X66850527Y-113673017D01*
X66762239Y-113638416D01*
X66669565Y-113648571D01*
X66584671Y-113703298D01*
X66560406Y-113728768D01*
X66542987Y-113754545D01*
X66531304Y-113788848D01*
X66524212Y-113839933D01*
X66520564Y-113916056D01*
X66519215Y-114025471D01*
X66519020Y-114176435D01*
X66519020Y-114583922D01*
X66245098Y-114583922D01*
X66245645Y-114141912D01*
X66245682Y-114122223D01*
X66248058Y-113934209D01*
X66255353Y-113788159D01*
X66269445Y-113676971D01*
X66292207Y-113593544D01*
X66325514Y-113530775D01*
X66371241Y-113481561D01*
X66431264Y-113438802D01*
X66493240Y-113409199D01*
X66618055Y-113382305D01*
X66747906Y-113386271D01*
G36*
X66747906Y-113386271D02*
G01*
X66861422Y-113421937D01*
X66911473Y-113446177D01*
X66936646Y-113448681D01*
X66942353Y-113426620D01*
X66942359Y-113425952D01*
X66954660Y-113403426D01*
X66997084Y-113391879D01*
X67079314Y-113388628D01*
X67216275Y-113388628D01*
X67216275Y-114583922D01*
X66942353Y-114583922D01*
X66942353Y-114171907D01*
X66942166Y-114032779D01*
X66940885Y-113918493D01*
X66937458Y-113838519D01*
X66930832Y-113784708D01*
X66919954Y-113748912D01*
X66903771Y-113722982D01*
X66881230Y-113698770D01*
X66850527Y-113673017D01*
X66762239Y-113638416D01*
X66669565Y-113648571D01*
X66584671Y-113703298D01*
X66560406Y-113728768D01*
X66542987Y-113754545D01*
X66531304Y-113788848D01*
X66524212Y-113839933D01*
X66520564Y-113916056D01*
X66519215Y-114025471D01*
X66519020Y-114176435D01*
X66519020Y-114583922D01*
X66245098Y-114583922D01*
X66245645Y-114141912D01*
X66245682Y-114122223D01*
X66248058Y-113934209D01*
X66255353Y-113788159D01*
X66269445Y-113676971D01*
X66292207Y-113593544D01*
X66325514Y-113530775D01*
X66371241Y-113481561D01*
X66431264Y-113438802D01*
X66493240Y-113409199D01*
X66618055Y-113382305D01*
X66747906Y-113386271D01*
G37*
X60907341Y-113394329D02*
X61043218Y-113447267D01*
X61158135Y-113534655D01*
X61243013Y-113654680D01*
X61248745Y-113666918D01*
X61285135Y-113786281D01*
X61303316Y-113928864D01*
X61303173Y-114077318D01*
X61284590Y-114214297D01*
X61247452Y-114322451D01*
X61201599Y-114397831D01*
X61100669Y-114504620D01*
X60974469Y-114572500D01*
X60866497Y-114599950D01*
X60702088Y-114602947D01*
X60544764Y-114561549D01*
X60405251Y-114477546D01*
X60314954Y-114403116D01*
X60396284Y-114319205D01*
X60447665Y-114269496D01*
X60494141Y-114241820D01*
X60537235Y-114247914D01*
X60592353Y-114285098D01*
X60614331Y-114299655D01*
X60707178Y-114329449D01*
X60813895Y-114329431D01*
X60913808Y-114298723D01*
X60951429Y-114274064D01*
X61006613Y-114201245D01*
X61034278Y-114094290D01*
X61036058Y-113948517D01*
X61036053Y-113948435D01*
X61015470Y-113818014D01*
X60970128Y-113727587D01*
X60895518Y-113671652D01*
X60787128Y-113644704D01*
X60718871Y-113641079D01*
X60659231Y-113655921D01*
X60598065Y-113698918D01*
X60518912Y-113765520D01*
X60418672Y-113684965D01*
X60382050Y-113654105D01*
X60336307Y-113609889D01*
X60318432Y-113583832D01*
X60324762Y-113572089D01*
X60361221Y-113536036D01*
X60419301Y-113490185D01*
X60464744Y-113460348D01*
X60609024Y-113399056D01*
X60759583Y-113377654D01*
X60907341Y-113394329D01*
G36*
X60907341Y-113394329D02*
G01*
X61043218Y-113447267D01*
X61158135Y-113534655D01*
X61243013Y-113654680D01*
X61248745Y-113666918D01*
X61285135Y-113786281D01*
X61303316Y-113928864D01*
X61303173Y-114077318D01*
X61284590Y-114214297D01*
X61247452Y-114322451D01*
X61201599Y-114397831D01*
X61100669Y-114504620D01*
X60974469Y-114572500D01*
X60866497Y-114599950D01*
X60702088Y-114602947D01*
X60544764Y-114561549D01*
X60405251Y-114477546D01*
X60314954Y-114403116D01*
X60396284Y-114319205D01*
X60447665Y-114269496D01*
X60494141Y-114241820D01*
X60537235Y-114247914D01*
X60592353Y-114285098D01*
X60614331Y-114299655D01*
X60707178Y-114329449D01*
X60813895Y-114329431D01*
X60913808Y-114298723D01*
X60951429Y-114274064D01*
X61006613Y-114201245D01*
X61034278Y-114094290D01*
X61036058Y-113948517D01*
X61036053Y-113948435D01*
X61015470Y-113818014D01*
X60970128Y-113727587D01*
X60895518Y-113671652D01*
X60787128Y-113644704D01*
X60718871Y-113641079D01*
X60659231Y-113655921D01*
X60598065Y-113698918D01*
X60518912Y-113765520D01*
X60418672Y-113684965D01*
X60382050Y-113654105D01*
X60336307Y-113609889D01*
X60318432Y-113583832D01*
X60324762Y-113572089D01*
X60361221Y-113536036D01*
X60419301Y-113490185D01*
X60464744Y-113460348D01*
X60609024Y-113399056D01*
X60759583Y-113377654D01*
X60907341Y-113394329D01*
G37*
X64470953Y-114072173D02*
X64464005Y-114150982D01*
X64433299Y-114301438D01*
X64378376Y-114416246D01*
X64294780Y-114502966D01*
X64178058Y-114569155D01*
X64132739Y-114584908D01*
X64015373Y-114604562D01*
X63891866Y-114604027D01*
X63787651Y-114582439D01*
X63785603Y-114581655D01*
X63701618Y-114532251D01*
X63616770Y-114455770D01*
X63546366Y-114368311D01*
X63505714Y-114285969D01*
X63493663Y-114225779D01*
X63483346Y-114113084D01*
X63481617Y-114012632D01*
X63732502Y-114012632D01*
X63747500Y-114133119D01*
X63782735Y-114232123D01*
X63836117Y-114296815D01*
X63856350Y-114307922D01*
X63933506Y-114328111D01*
X64022749Y-114332265D01*
X64097828Y-114318235D01*
X64127132Y-114298116D01*
X64168264Y-114227760D01*
X64194146Y-114117645D01*
X64203138Y-113973145D01*
X64202994Y-113931549D01*
X64199870Y-113847264D01*
X64189482Y-113792281D01*
X64167688Y-113751655D01*
X64130347Y-113710437D01*
X64059293Y-113660481D01*
X63966791Y-113640057D01*
X63877418Y-113659509D01*
X63803210Y-113715771D01*
X63756201Y-113805775D01*
X63739828Y-113883494D01*
X63732502Y-114012632D01*
X63481617Y-114012632D01*
X63481137Y-113984738D01*
X63486672Y-113856993D01*
X63499588Y-113746101D01*
X63519522Y-113668315D01*
X63565953Y-113580245D01*
X63664498Y-113471959D01*
X63790453Y-113403364D01*
X63940074Y-113376213D01*
X64109615Y-113392259D01*
X64137825Y-113399094D01*
X64269201Y-113458040D01*
X64368198Y-113554814D01*
X64434820Y-113689423D01*
X64469070Y-113861874D01*
X64470067Y-113973145D01*
X64470953Y-114072173D01*
G36*
X64470953Y-114072173D02*
G01*
X64464005Y-114150982D01*
X64433299Y-114301438D01*
X64378376Y-114416246D01*
X64294780Y-114502966D01*
X64178058Y-114569155D01*
X64132739Y-114584908D01*
X64015373Y-114604562D01*
X63891866Y-114604027D01*
X63787651Y-114582439D01*
X63785603Y-114581655D01*
X63701618Y-114532251D01*
X63616770Y-114455770D01*
X63546366Y-114368311D01*
X63505714Y-114285969D01*
X63493663Y-114225779D01*
X63483346Y-114113084D01*
X63481617Y-114012632D01*
X63732502Y-114012632D01*
X63747500Y-114133119D01*
X63782735Y-114232123D01*
X63836117Y-114296815D01*
X63856350Y-114307922D01*
X63933506Y-114328111D01*
X64022749Y-114332265D01*
X64097828Y-114318235D01*
X64127132Y-114298116D01*
X64168264Y-114227760D01*
X64194146Y-114117645D01*
X64203138Y-113973145D01*
X64202994Y-113931549D01*
X64199870Y-113847264D01*
X64189482Y-113792281D01*
X64167688Y-113751655D01*
X64130347Y-113710437D01*
X64059293Y-113660481D01*
X63966791Y-113640057D01*
X63877418Y-113659509D01*
X63803210Y-113715771D01*
X63756201Y-113805775D01*
X63739828Y-113883494D01*
X63732502Y-114012632D01*
X63481617Y-114012632D01*
X63481137Y-113984738D01*
X63486672Y-113856993D01*
X63499588Y-113746101D01*
X63519522Y-113668315D01*
X63565953Y-113580245D01*
X63664498Y-113471959D01*
X63790453Y-113403364D01*
X63940074Y-113376213D01*
X64109615Y-113392259D01*
X64137825Y-113399094D01*
X64269201Y-113458040D01*
X64368198Y-113554814D01*
X64434820Y-113689423D01*
X64469070Y-113861874D01*
X64470067Y-113973145D01*
X64470953Y-114072173D01*
G37*
X64669270Y-115647297D02*
X64702936Y-115747741D01*
X64742761Y-115858935D01*
X64776017Y-115943172D01*
X64799954Y-115993587D01*
X64811824Y-116003318D01*
X64814688Y-115994856D01*
X64830191Y-115942953D01*
X64854883Y-115856265D01*
X64886023Y-115744497D01*
X64920870Y-115617353D01*
X65015674Y-115268726D01*
X65160426Y-115261163D01*
X65172645Y-115260557D01*
X65250703Y-115259755D01*
X65288212Y-115267768D01*
X65292989Y-115286065D01*
X65286955Y-115303934D01*
X65267103Y-115365095D01*
X65236023Y-115461960D01*
X65195930Y-115587602D01*
X65149037Y-115735091D01*
X65097561Y-115897500D01*
X64914321Y-116476471D01*
X64685105Y-116476471D01*
X64577101Y-116109167D01*
X64557158Y-116041720D01*
X64520300Y-115919101D01*
X64488805Y-115816930D01*
X64465510Y-115744336D01*
X64453250Y-115710446D01*
X64449757Y-115707918D01*
X64432758Y-115729778D01*
X64408489Y-115787586D01*
X64380982Y-115872309D01*
X64379528Y-115877285D01*
X64342700Y-116002322D01*
X64300562Y-116143896D01*
X64261950Y-116272316D01*
X64199339Y-116479044D01*
X63968411Y-116464020D01*
X63861470Y-116127843D01*
X63814519Y-115980128D01*
X63761926Y-115814458D01*
X63711565Y-115655638D01*
X63669878Y-115523971D01*
X63585227Y-115256275D01*
X63868429Y-115256275D01*
X63937072Y-115511520D01*
X63955321Y-115578963D01*
X63989833Y-115704697D01*
X64021793Y-115819083D01*
X64046089Y-115903726D01*
X64086463Y-116040686D01*
X64215224Y-115654706D01*
X64343986Y-115268726D01*
X64442472Y-115261332D01*
X64540959Y-115253939D01*
X64669270Y-115647297D01*
G36*
X64669270Y-115647297D02*
G01*
X64702936Y-115747741D01*
X64742761Y-115858935D01*
X64776017Y-115943172D01*
X64799954Y-115993587D01*
X64811824Y-116003318D01*
X64814688Y-115994856D01*
X64830191Y-115942953D01*
X64854883Y-115856265D01*
X64886023Y-115744497D01*
X64920870Y-115617353D01*
X65015674Y-115268726D01*
X65160426Y-115261163D01*
X65172645Y-115260557D01*
X65250703Y-115259755D01*
X65288212Y-115267768D01*
X65292989Y-115286065D01*
X65286955Y-115303934D01*
X65267103Y-115365095D01*
X65236023Y-115461960D01*
X65195930Y-115587602D01*
X65149037Y-115735091D01*
X65097561Y-115897500D01*
X64914321Y-116476471D01*
X64685105Y-116476471D01*
X64577101Y-116109167D01*
X64557158Y-116041720D01*
X64520300Y-115919101D01*
X64488805Y-115816930D01*
X64465510Y-115744336D01*
X64453250Y-115710446D01*
X64449757Y-115707918D01*
X64432758Y-115729778D01*
X64408489Y-115787586D01*
X64380982Y-115872309D01*
X64379528Y-115877285D01*
X64342700Y-116002322D01*
X64300562Y-116143896D01*
X64261950Y-116272316D01*
X64199339Y-116479044D01*
X63968411Y-116464020D01*
X63861470Y-116127843D01*
X63814519Y-115980128D01*
X63761926Y-115814458D01*
X63711565Y-115655638D01*
X63669878Y-115523971D01*
X63585227Y-115256275D01*
X63868429Y-115256275D01*
X63937072Y-115511520D01*
X63955321Y-115578963D01*
X63989833Y-115704697D01*
X64021793Y-115819083D01*
X64046089Y-115903726D01*
X64086463Y-116040686D01*
X64215224Y-115654706D01*
X64343986Y-115268726D01*
X64442472Y-115261332D01*
X64540959Y-115253939D01*
X64669270Y-115647297D01*
G37*
X66367979Y-115959570D02*
X66364822Y-116066032D01*
X66358474Y-116140192D01*
X66357386Y-116146989D01*
X66314660Y-116268555D01*
X66236634Y-116371619D01*
X66134274Y-116441444D01*
X66024354Y-116470346D01*
X65889151Y-116468103D01*
X65764776Y-116429351D01*
X65732379Y-116412998D01*
X65690720Y-116395475D01*
X65674867Y-116400927D01*
X65672353Y-116429351D01*
X65671199Y-116443525D01*
X65656292Y-116464488D01*
X65614889Y-116474140D01*
X65535393Y-116476471D01*
X65398432Y-116476471D01*
X65398432Y-115878607D01*
X65672353Y-115878607D01*
X65674316Y-115982181D01*
X65682283Y-116051138D01*
X65699292Y-116098379D01*
X65728383Y-116137968D01*
X65805196Y-116196831D01*
X65895086Y-116216564D01*
X65982254Y-116192162D01*
X66055669Y-116124090D01*
X66075075Y-116074278D01*
X66089410Y-115986070D01*
X66095711Y-115879052D01*
X66093726Y-115769284D01*
X66083199Y-115672827D01*
X66063876Y-115605743D01*
X66057703Y-115594742D01*
X65998193Y-115539453D01*
X65917546Y-115514959D01*
X65830933Y-115520656D01*
X65753522Y-115555940D01*
X65700486Y-115620208D01*
X65698294Y-115625613D01*
X65685143Y-115685921D01*
X65675866Y-115776039D01*
X65672353Y-115878607D01*
X65398432Y-115878607D01*
X65398432Y-114783137D01*
X65672353Y-114783137D01*
X65672353Y-115363601D01*
X65723090Y-115317685D01*
X65771942Y-115289146D01*
X65864402Y-115265290D01*
X65972485Y-115257603D01*
X66078036Y-115267040D01*
X66162900Y-115294557D01*
X66223641Y-115333699D01*
X66286207Y-115400379D01*
X66328315Y-115490053D01*
X66353627Y-115611355D01*
X66365806Y-115772918D01*
X66367596Y-115838225D01*
X66367725Y-115879052D01*
X66367979Y-115959570D01*
G36*
X66367979Y-115959570D02*
G01*
X66364822Y-116066032D01*
X66358474Y-116140192D01*
X66357386Y-116146989D01*
X66314660Y-116268555D01*
X66236634Y-116371619D01*
X66134274Y-116441444D01*
X66024354Y-116470346D01*
X65889151Y-116468103D01*
X65764776Y-116429351D01*
X65732379Y-116412998D01*
X65690720Y-116395475D01*
X65674867Y-116400927D01*
X65672353Y-116429351D01*
X65671199Y-116443525D01*
X65656292Y-116464488D01*
X65614889Y-116474140D01*
X65535393Y-116476471D01*
X65398432Y-116476471D01*
X65398432Y-115878607D01*
X65672353Y-115878607D01*
X65674316Y-115982181D01*
X65682283Y-116051138D01*
X65699292Y-116098379D01*
X65728383Y-116137968D01*
X65805196Y-116196831D01*
X65895086Y-116216564D01*
X65982254Y-116192162D01*
X66055669Y-116124090D01*
X66075075Y-116074278D01*
X66089410Y-115986070D01*
X66095711Y-115879052D01*
X66093726Y-115769284D01*
X66083199Y-115672827D01*
X66063876Y-115605743D01*
X66057703Y-115594742D01*
X65998193Y-115539453D01*
X65917546Y-115514959D01*
X65830933Y-115520656D01*
X65753522Y-115555940D01*
X65700486Y-115620208D01*
X65698294Y-115625613D01*
X65685143Y-115685921D01*
X65675866Y-115776039D01*
X65672353Y-115878607D01*
X65398432Y-115878607D01*
X65398432Y-114783137D01*
X65672353Y-114783137D01*
X65672353Y-115363601D01*
X65723090Y-115317685D01*
X65771942Y-115289146D01*
X65864402Y-115265290D01*
X65972485Y-115257603D01*
X66078036Y-115267040D01*
X66162900Y-115294557D01*
X66223641Y-115333699D01*
X66286207Y-115400379D01*
X66328315Y-115490053D01*
X66353627Y-115611355D01*
X66365806Y-115772918D01*
X66367596Y-115838225D01*
X66367725Y-115879052D01*
X66367979Y-115959570D01*
G37*
X70673818Y-114054666D02*
X70670603Y-114132653D01*
X70663305Y-114227754D01*
X70650873Y-114295160D01*
X70630343Y-114348570D01*
X70598751Y-114401685D01*
X70597406Y-114403699D01*
X70519616Y-114489755D01*
X70424438Y-114555391D01*
X70313760Y-114594339D01*
X70168163Y-114606985D01*
X70025463Y-114582119D01*
X69897909Y-114522198D01*
X69797753Y-114429681D01*
X69768999Y-114385967D01*
X69715301Y-114250073D01*
X69688670Y-114082408D01*
X69689125Y-114039997D01*
X69956763Y-114039997D01*
X69957267Y-114119314D01*
X69965677Y-114172267D01*
X69984838Y-114212956D01*
X70017598Y-114255479D01*
X70063058Y-114297676D01*
X70153980Y-114335333D01*
X70251608Y-114328338D01*
X70344914Y-114276002D01*
X70371234Y-114251006D01*
X70399336Y-114208214D01*
X70414920Y-114148068D01*
X70423753Y-114054348D01*
X70426186Y-113983944D01*
X70412856Y-113840168D01*
X70371947Y-113737231D01*
X70303281Y-113674567D01*
X70222789Y-113644560D01*
X70126794Y-113647086D01*
X70037811Y-113697746D01*
X70016538Y-113717031D01*
X69989693Y-113750774D01*
X69973766Y-113794920D01*
X69964929Y-113862601D01*
X69959355Y-113966950D01*
X69956763Y-114039997D01*
X69689125Y-114039997D01*
X69690724Y-113891126D01*
X69693345Y-113863996D01*
X69729918Y-113690229D01*
X69797581Y-113555334D01*
X69896478Y-113459163D01*
X70026753Y-113401568D01*
X70188550Y-113382402D01*
X70249679Y-113384201D01*
X70375039Y-113406211D01*
X70477546Y-113458746D01*
X70573115Y-113548686D01*
X70588400Y-113566737D01*
X70629624Y-113627530D01*
X70656717Y-113696367D01*
X70671740Y-113783600D01*
X70676754Y-113899582D01*
X70675156Y-113983944D01*
X70673818Y-114054666D01*
G36*
X70673818Y-114054666D02*
G01*
X70670603Y-114132653D01*
X70663305Y-114227754D01*
X70650873Y-114295160D01*
X70630343Y-114348570D01*
X70598751Y-114401685D01*
X70597406Y-114403699D01*
X70519616Y-114489755D01*
X70424438Y-114555391D01*
X70313760Y-114594339D01*
X70168163Y-114606985D01*
X70025463Y-114582119D01*
X69897909Y-114522198D01*
X69797753Y-114429681D01*
X69768999Y-114385967D01*
X69715301Y-114250073D01*
X69688670Y-114082408D01*
X69689125Y-114039997D01*
X69956763Y-114039997D01*
X69957267Y-114119314D01*
X69965677Y-114172267D01*
X69984838Y-114212956D01*
X70017598Y-114255479D01*
X70063058Y-114297676D01*
X70153980Y-114335333D01*
X70251608Y-114328338D01*
X70344914Y-114276002D01*
X70371234Y-114251006D01*
X70399336Y-114208214D01*
X70414920Y-114148068D01*
X70423753Y-114054348D01*
X70426186Y-113983944D01*
X70412856Y-113840168D01*
X70371947Y-113737231D01*
X70303281Y-113674567D01*
X70222789Y-113644560D01*
X70126794Y-113647086D01*
X70037811Y-113697746D01*
X70016538Y-113717031D01*
X69989693Y-113750774D01*
X69973766Y-113794920D01*
X69964929Y-113862601D01*
X69959355Y-113966950D01*
X69956763Y-114039997D01*
X69689125Y-114039997D01*
X69690724Y-113891126D01*
X69693345Y-113863996D01*
X69729918Y-113690229D01*
X69797581Y-113555334D01*
X69896478Y-113459163D01*
X70026753Y-113401568D01*
X70188550Y-113382402D01*
X70249679Y-113384201D01*
X70375039Y-113406211D01*
X70477546Y-113458746D01*
X70573115Y-113548686D01*
X70588400Y-113566737D01*
X70629624Y-113627530D01*
X70656717Y-113696367D01*
X70671740Y-113783600D01*
X70676754Y-113899582D01*
X70675156Y-113983944D01*
X70673818Y-114054666D01*
G37*
X60285566Y-113906032D02*
X60282360Y-114096632D01*
X60281943Y-114100380D01*
X60246139Y-114275271D01*
X60181449Y-114411247D01*
X60085859Y-114511296D01*
X59957353Y-114578405D01*
X59933764Y-114586079D01*
X59787551Y-114608696D01*
X59636334Y-114596084D01*
X59495750Y-114551017D01*
X59381437Y-114476269D01*
X59295812Y-114397157D01*
X59386827Y-114325191D01*
X59477842Y-114253224D01*
X59587528Y-114306514D01*
X59714445Y-114349695D01*
X59826488Y-114350987D01*
X59918157Y-114311314D01*
X59984123Y-114231683D01*
X60007771Y-114183968D01*
X60020972Y-114143189D01*
X60013334Y-114115641D01*
X59979063Y-114098731D01*
X59912368Y-114089864D01*
X59807454Y-114086445D01*
X59658530Y-114085882D01*
X59297451Y-114085882D01*
X59297451Y-113913190D01*
X59300149Y-113837376D01*
X59554385Y-113837376D01*
X59566595Y-113851321D01*
X59602748Y-113858578D01*
X59671463Y-113861332D01*
X59781362Y-113861765D01*
X59840294Y-113861073D01*
X59933290Y-113856500D01*
X59996373Y-113848491D01*
X60019608Y-113838035D01*
X60013663Y-113799456D01*
X59971762Y-113725634D01*
X59901938Y-113664990D01*
X59818699Y-113628362D01*
X59736554Y-113626589D01*
X59674721Y-113655960D01*
X59604656Y-113722800D01*
X59560106Y-113805735D01*
X59557496Y-113814562D01*
X59554385Y-113837376D01*
X59300149Y-113837376D01*
X59300702Y-113821853D01*
X59310246Y-113731484D01*
X59323881Y-113670396D01*
X59333820Y-113647074D01*
X59406166Y-113543202D01*
X59510700Y-113456569D01*
X59632949Y-113399845D01*
X59696713Y-113384355D01*
X59848645Y-113377304D01*
X59984022Y-113413174D01*
X60099122Y-113487974D01*
X60190227Y-113597711D01*
X60253615Y-113738395D01*
X60272607Y-113838035D01*
X60285566Y-113906032D01*
G36*
X60285566Y-113906032D02*
G01*
X60282360Y-114096632D01*
X60281943Y-114100380D01*
X60246139Y-114275271D01*
X60181449Y-114411247D01*
X60085859Y-114511296D01*
X59957353Y-114578405D01*
X59933764Y-114586079D01*
X59787551Y-114608696D01*
X59636334Y-114596084D01*
X59495750Y-114551017D01*
X59381437Y-114476269D01*
X59295812Y-114397157D01*
X59386827Y-114325191D01*
X59477842Y-114253224D01*
X59587528Y-114306514D01*
X59714445Y-114349695D01*
X59826488Y-114350987D01*
X59918157Y-114311314D01*
X59984123Y-114231683D01*
X60007771Y-114183968D01*
X60020972Y-114143189D01*
X60013334Y-114115641D01*
X59979063Y-114098731D01*
X59912368Y-114089864D01*
X59807454Y-114086445D01*
X59658530Y-114085882D01*
X59297451Y-114085882D01*
X59297451Y-113913190D01*
X59300149Y-113837376D01*
X59554385Y-113837376D01*
X59566595Y-113851321D01*
X59602748Y-113858578D01*
X59671463Y-113861332D01*
X59781362Y-113861765D01*
X59840294Y-113861073D01*
X59933290Y-113856500D01*
X59996373Y-113848491D01*
X60019608Y-113838035D01*
X60013663Y-113799456D01*
X59971762Y-113725634D01*
X59901938Y-113664990D01*
X59818699Y-113628362D01*
X59736554Y-113626589D01*
X59674721Y-113655960D01*
X59604656Y-113722800D01*
X59560106Y-113805735D01*
X59557496Y-113814562D01*
X59554385Y-113837376D01*
X59300149Y-113837376D01*
X59300702Y-113821853D01*
X59310246Y-113731484D01*
X59323881Y-113670396D01*
X59333820Y-113647074D01*
X59406166Y-113543202D01*
X59510700Y-113456569D01*
X59632949Y-113399845D01*
X59696713Y-113384355D01*
X59848645Y-113377304D01*
X59984022Y-113413174D01*
X60099122Y-113487974D01*
X60190227Y-113597711D01*
X60253615Y-113738395D01*
X60272607Y-113838035D01*
X60285566Y-113906032D01*
G37*
X65195810Y-113387820D02*
X65339629Y-113423866D01*
X65444691Y-113490677D01*
X65511594Y-113588702D01*
X65540940Y-113718387D01*
X65534999Y-113842544D01*
X65492114Y-113947266D01*
X65409876Y-114024693D01*
X65286635Y-114076337D01*
X65120744Y-114103710D01*
X65012952Y-114118057D01*
X64914566Y-114149099D01*
X64863771Y-114194053D01*
X64860704Y-114252838D01*
X64881146Y-114289493D01*
X64944454Y-114332935D01*
X65034449Y-114353483D01*
X65139913Y-114350673D01*
X65249626Y-114324042D01*
X65352368Y-114273128D01*
X65454804Y-114205339D01*
X65544902Y-114296508D01*
X65635000Y-114387676D01*
X65560295Y-114448655D01*
X65531246Y-114469842D01*
X65449517Y-114517978D01*
X65361079Y-114559457D01*
X65291087Y-114583262D01*
X65188602Y-114600504D01*
X65062255Y-114600732D01*
X64907318Y-114581748D01*
X64767745Y-114533630D01*
X64668950Y-114457195D01*
X64610701Y-114352254D01*
X64592762Y-114218617D01*
X64605747Y-114101054D01*
X64647431Y-114004803D01*
X64722477Y-113935873D01*
X64835635Y-113890030D01*
X64991654Y-113863042D01*
X65009574Y-113861088D01*
X65106714Y-113848630D01*
X65185514Y-113835592D01*
X65230344Y-113824499D01*
X65245304Y-113815567D01*
X65270596Y-113769509D01*
X65266488Y-113710553D01*
X65232688Y-113659373D01*
X65214939Y-113648210D01*
X65140981Y-113630326D01*
X65045451Y-113631529D01*
X64945836Y-113650561D01*
X64859621Y-113686168D01*
X64769031Y-113739618D01*
X64698763Y-113657505D01*
X64681712Y-113636644D01*
X64643298Y-113580761D01*
X64627483Y-113542887D01*
X64644090Y-113519664D01*
X64695469Y-113483412D01*
X64769657Y-113444402D01*
X64780110Y-113439633D01*
X64877941Y-113402229D01*
X64972241Y-113384345D01*
X65089262Y-113380754D01*
X65195810Y-113387820D01*
G36*
X65195810Y-113387820D02*
G01*
X65339629Y-113423866D01*
X65444691Y-113490677D01*
X65511594Y-113588702D01*
X65540940Y-113718387D01*
X65534999Y-113842544D01*
X65492114Y-113947266D01*
X65409876Y-114024693D01*
X65286635Y-114076337D01*
X65120744Y-114103710D01*
X65012952Y-114118057D01*
X64914566Y-114149099D01*
X64863771Y-114194053D01*
X64860704Y-114252838D01*
X64881146Y-114289493D01*
X64944454Y-114332935D01*
X65034449Y-114353483D01*
X65139913Y-114350673D01*
X65249626Y-114324042D01*
X65352368Y-114273128D01*
X65454804Y-114205339D01*
X65544902Y-114296508D01*
X65635000Y-114387676D01*
X65560295Y-114448655D01*
X65531246Y-114469842D01*
X65449517Y-114517978D01*
X65361079Y-114559457D01*
X65291087Y-114583262D01*
X65188602Y-114600504D01*
X65062255Y-114600732D01*
X64907318Y-114581748D01*
X64767745Y-114533630D01*
X64668950Y-114457195D01*
X64610701Y-114352254D01*
X64592762Y-114218617D01*
X64605747Y-114101054D01*
X64647431Y-114004803D01*
X64722477Y-113935873D01*
X64835635Y-113890030D01*
X64991654Y-113863042D01*
X65009574Y-113861088D01*
X65106714Y-113848630D01*
X65185514Y-113835592D01*
X65230344Y-113824499D01*
X65245304Y-113815567D01*
X65270596Y-113769509D01*
X65266488Y-113710553D01*
X65232688Y-113659373D01*
X65214939Y-113648210D01*
X65140981Y-113630326D01*
X65045451Y-113631529D01*
X64945836Y-113650561D01*
X64859621Y-113686168D01*
X64769031Y-113739618D01*
X64698763Y-113657505D01*
X64681712Y-113636644D01*
X64643298Y-113580761D01*
X64627483Y-113542887D01*
X64644090Y-113519664D01*
X64695469Y-113483412D01*
X64769657Y-113444402D01*
X64780110Y-113439633D01*
X64877941Y-113402229D01*
X64972241Y-113384345D01*
X65089262Y-113380754D01*
X65195810Y-113387820D01*
G37*
X61562740Y-115866373D02*
X61559502Y-115959330D01*
X61530010Y-116137105D01*
X61469329Y-116276892D01*
X61376922Y-116379689D01*
X61252255Y-116446496D01*
X61211976Y-116458300D01*
X61068153Y-116474786D01*
X60916289Y-116460873D01*
X60779118Y-116417935D01*
X60730794Y-116393565D01*
X60661507Y-116351819D01*
X60619517Y-116317468D01*
X60613317Y-116309620D01*
X60601719Y-116280917D01*
X60618430Y-116249714D01*
X60669321Y-116202459D01*
X60693880Y-116181887D01*
X60742260Y-116144242D01*
X60767627Y-116128855D01*
X60774894Y-116130440D01*
X60816544Y-116147574D01*
X60878726Y-116177647D01*
X60899000Y-116187540D01*
X61018600Y-116224275D01*
X61122506Y-116214805D01*
X61213621Y-116158971D01*
X61224222Y-116148654D01*
X61274909Y-116084031D01*
X61303870Y-116022010D01*
X61319909Y-115953530D01*
X60567451Y-115953530D01*
X60567590Y-115822794D01*
X60567670Y-115809792D01*
X60577829Y-115704903D01*
X60841373Y-115704903D01*
X60844485Y-115726657D01*
X60860462Y-115741649D01*
X60898543Y-115749970D01*
X60967960Y-115753549D01*
X61077942Y-115754314D01*
X61139086Y-115753521D01*
X61229338Y-115748888D01*
X61291416Y-115741038D01*
X61314510Y-115731033D01*
X61294814Y-115648677D01*
X61237151Y-115571811D01*
X61153984Y-115518484D01*
X61057911Y-115500038D01*
X60987178Y-115520832D01*
X60916471Y-115571664D01*
X60862722Y-115637892D01*
X60841373Y-115704903D01*
X60577829Y-115704903D01*
X60583248Y-115648950D01*
X60628592Y-115518106D01*
X60707712Y-115405313D01*
X60755979Y-115357600D01*
X60855663Y-115293731D01*
X60974693Y-115262784D01*
X61125043Y-115260607D01*
X61197668Y-115269139D01*
X61331727Y-115313440D01*
X61434365Y-115394069D01*
X61506480Y-115512271D01*
X61548972Y-115669291D01*
X61553286Y-115731033D01*
X61562740Y-115866373D01*
G36*
X61562740Y-115866373D02*
G01*
X61559502Y-115959330D01*
X61530010Y-116137105D01*
X61469329Y-116276892D01*
X61376922Y-116379689D01*
X61252255Y-116446496D01*
X61211976Y-116458300D01*
X61068153Y-116474786D01*
X60916289Y-116460873D01*
X60779118Y-116417935D01*
X60730794Y-116393565D01*
X60661507Y-116351819D01*
X60619517Y-116317468D01*
X60613317Y-116309620D01*
X60601719Y-116280917D01*
X60618430Y-116249714D01*
X60669321Y-116202459D01*
X60693880Y-116181887D01*
X60742260Y-116144242D01*
X60767627Y-116128855D01*
X60774894Y-116130440D01*
X60816544Y-116147574D01*
X60878726Y-116177647D01*
X60899000Y-116187540D01*
X61018600Y-116224275D01*
X61122506Y-116214805D01*
X61213621Y-116158971D01*
X61224222Y-116148654D01*
X61274909Y-116084031D01*
X61303870Y-116022010D01*
X61319909Y-115953530D01*
X60567451Y-115953530D01*
X60567590Y-115822794D01*
X60567670Y-115809792D01*
X60577829Y-115704903D01*
X60841373Y-115704903D01*
X60844485Y-115726657D01*
X60860462Y-115741649D01*
X60898543Y-115749970D01*
X60967960Y-115753549D01*
X61077942Y-115754314D01*
X61139086Y-115753521D01*
X61229338Y-115748888D01*
X61291416Y-115741038D01*
X61314510Y-115731033D01*
X61294814Y-115648677D01*
X61237151Y-115571811D01*
X61153984Y-115518484D01*
X61057911Y-115500038D01*
X60987178Y-115520832D01*
X60916471Y-115571664D01*
X60862722Y-115637892D01*
X60841373Y-115704903D01*
X60577829Y-115704903D01*
X60583248Y-115648950D01*
X60628592Y-115518106D01*
X60707712Y-115405313D01*
X60755979Y-115357600D01*
X60855663Y-115293731D01*
X60974693Y-115262784D01*
X61125043Y-115260607D01*
X61197668Y-115269139D01*
X61331727Y-115313440D01*
X61434365Y-115394069D01*
X61506480Y-115512271D01*
X61548972Y-115669291D01*
X61553286Y-115731033D01*
X61562740Y-115866373D01*
G37*
X68380573Y-113836685D02*
X68389286Y-114011108D01*
X68387109Y-114087224D01*
X68362559Y-114253570D01*
X68308460Y-114384728D01*
X68221982Y-114486101D01*
X68100295Y-114563096D01*
X67982249Y-114599039D01*
X67834161Y-114605915D01*
X67684748Y-114579468D01*
X67551472Y-114521037D01*
X67502083Y-114488532D01*
X67447668Y-114446868D01*
X67422840Y-114419452D01*
X67424247Y-114408140D01*
X67452039Y-114369597D01*
X67504272Y-114322901D01*
X67594791Y-114253858D01*
X67700858Y-114306831D01*
X67729540Y-114319943D01*
X67813971Y-114348441D01*
X67884737Y-114359804D01*
X67936919Y-114350441D01*
X68018806Y-114305351D01*
X68087637Y-114235355D01*
X68127007Y-114154363D01*
X68143047Y-114085882D01*
X67390589Y-114085882D01*
X67390728Y-113955147D01*
X67391867Y-113913713D01*
X67400182Y-113824805D01*
X67664510Y-113824805D01*
X67664995Y-113829899D01*
X67678687Y-113845760D01*
X67717378Y-113855505D01*
X67789317Y-113860413D01*
X67902757Y-113861765D01*
X67940042Y-113861749D01*
X68036873Y-113860854D01*
X68095083Y-113856988D01*
X68123306Y-113847968D01*
X68130173Y-113831611D01*
X68124317Y-113805735D01*
X68123423Y-113802802D01*
X68072973Y-113712759D01*
X67993442Y-113650766D01*
X67898603Y-113627686D01*
X67863547Y-113629532D01*
X67798481Y-113651611D01*
X67736061Y-113707766D01*
X67719247Y-113727621D01*
X67680137Y-113784326D01*
X67664510Y-113824805D01*
X67400182Y-113824805D01*
X67401251Y-113813376D01*
X67416988Y-113730349D01*
X67434236Y-113683868D01*
X67494879Y-113582769D01*
X67576094Y-113490951D01*
X67661981Y-113428037D01*
X67686796Y-113416354D01*
X67831290Y-113377600D01*
X67978842Y-113381686D01*
X68117567Y-113426882D01*
X68235579Y-113511461D01*
X68299410Y-113589461D01*
X68351601Y-113699343D01*
X68379503Y-113831611D01*
X68380573Y-113836685D01*
G36*
X68380573Y-113836685D02*
G01*
X68389286Y-114011108D01*
X68387109Y-114087224D01*
X68362559Y-114253570D01*
X68308460Y-114384728D01*
X68221982Y-114486101D01*
X68100295Y-114563096D01*
X67982249Y-114599039D01*
X67834161Y-114605915D01*
X67684748Y-114579468D01*
X67551472Y-114521037D01*
X67502083Y-114488532D01*
X67447668Y-114446868D01*
X67422840Y-114419452D01*
X67424247Y-114408140D01*
X67452039Y-114369597D01*
X67504272Y-114322901D01*
X67594791Y-114253858D01*
X67700858Y-114306831D01*
X67729540Y-114319943D01*
X67813971Y-114348441D01*
X67884737Y-114359804D01*
X67936919Y-114350441D01*
X68018806Y-114305351D01*
X68087637Y-114235355D01*
X68127007Y-114154363D01*
X68143047Y-114085882D01*
X67390589Y-114085882D01*
X67390728Y-113955147D01*
X67391867Y-113913713D01*
X67400182Y-113824805D01*
X67664510Y-113824805D01*
X67664995Y-113829899D01*
X67678687Y-113845760D01*
X67717378Y-113855505D01*
X67789317Y-113860413D01*
X67902757Y-113861765D01*
X67940042Y-113861749D01*
X68036873Y-113860854D01*
X68095083Y-113856988D01*
X68123306Y-113847968D01*
X68130173Y-113831611D01*
X68124317Y-113805735D01*
X68123423Y-113802802D01*
X68072973Y-113712759D01*
X67993442Y-113650766D01*
X67898603Y-113627686D01*
X67863547Y-113629532D01*
X67798481Y-113651611D01*
X67736061Y-113707766D01*
X67719247Y-113727621D01*
X67680137Y-113784326D01*
X67664510Y-113824805D01*
X67400182Y-113824805D01*
X67401251Y-113813376D01*
X67416988Y-113730349D01*
X67434236Y-113683868D01*
X67494879Y-113582769D01*
X67576094Y-113490951D01*
X67661981Y-113428037D01*
X67686796Y-113416354D01*
X67831290Y-113377600D01*
X67978842Y-113381686D01*
X68117567Y-113426882D01*
X68235579Y-113511461D01*
X68299410Y-113589461D01*
X68351601Y-113699343D01*
X68379503Y-113831611D01*
X68380573Y-113836685D01*
G37*
X63592760Y-116148738D02*
X63562719Y-116261789D01*
X63497432Y-116358505D01*
X63398398Y-116428077D01*
X63388679Y-116432305D01*
X63280320Y-116462767D01*
X63158223Y-116474642D01*
X63042138Y-116467382D01*
X62951814Y-116440441D01*
X62915734Y-116422865D01*
X62889256Y-116418674D01*
X62883334Y-116440594D01*
X62872116Y-116460866D01*
X62828713Y-116472938D01*
X62744469Y-116476471D01*
X62605604Y-116476471D01*
X62613734Y-115997108D01*
X62614602Y-115953530D01*
X62883334Y-115953530D01*
X62883334Y-116040686D01*
X62892713Y-116105829D01*
X62933138Y-116177647D01*
X62948059Y-116190848D01*
X63009218Y-116218620D01*
X63101226Y-116225766D01*
X63156435Y-116222974D01*
X63259741Y-116201952D01*
X63323771Y-116162782D01*
X63345367Y-116108122D01*
X63321369Y-116040628D01*
X63307367Y-116022964D01*
X63244827Y-115983345D01*
X63145847Y-115960722D01*
X63004731Y-115953530D01*
X62883334Y-115953530D01*
X62614602Y-115953530D01*
X62615943Y-115886258D01*
X62621761Y-115720305D01*
X62631567Y-115593409D01*
X62647299Y-115498654D01*
X62670894Y-115429120D01*
X62704291Y-115377890D01*
X62749427Y-115338046D01*
X62808239Y-115302669D01*
X62838580Y-115289163D01*
X62943541Y-115263669D01*
X63070134Y-115253129D01*
X63201017Y-115257350D01*
X63318845Y-115276140D01*
X63406275Y-115309305D01*
X63436687Y-115328562D01*
X63506705Y-115385636D01*
X63530403Y-115433427D01*
X63524648Y-115442662D01*
X63488782Y-115474919D01*
X63430881Y-115517950D01*
X63401279Y-115538091D01*
X63350868Y-115566629D01*
X63318110Y-115569354D01*
X63287695Y-115549657D01*
X63211892Y-115509766D01*
X63109895Y-115493361D01*
X63005661Y-115505920D01*
X63003689Y-115506489D01*
X62930171Y-115538431D01*
X62893781Y-115588428D01*
X62883715Y-115671116D01*
X62883334Y-115749780D01*
X63143230Y-115758273D01*
X63184636Y-115759670D01*
X63289027Y-115764528D01*
X63359010Y-115772161D01*
X63406313Y-115785425D01*
X63442668Y-115807181D01*
X63479804Y-115840285D01*
X63541120Y-115916855D01*
X63586059Y-116030157D01*
X63590465Y-116108122D01*
X63592760Y-116148738D01*
G36*
X63592760Y-116148738D02*
G01*
X63562719Y-116261789D01*
X63497432Y-116358505D01*
X63398398Y-116428077D01*
X63388679Y-116432305D01*
X63280320Y-116462767D01*
X63158223Y-116474642D01*
X63042138Y-116467382D01*
X62951814Y-116440441D01*
X62915734Y-116422865D01*
X62889256Y-116418674D01*
X62883334Y-116440594D01*
X62872116Y-116460866D01*
X62828713Y-116472938D01*
X62744469Y-116476471D01*
X62605604Y-116476471D01*
X62613734Y-115997108D01*
X62614602Y-115953530D01*
X62883334Y-115953530D01*
X62883334Y-116040686D01*
X62892713Y-116105829D01*
X62933138Y-116177647D01*
X62948059Y-116190848D01*
X63009218Y-116218620D01*
X63101226Y-116225766D01*
X63156435Y-116222974D01*
X63259741Y-116201952D01*
X63323771Y-116162782D01*
X63345367Y-116108122D01*
X63321369Y-116040628D01*
X63307367Y-116022964D01*
X63244827Y-115983345D01*
X63145847Y-115960722D01*
X63004731Y-115953530D01*
X62883334Y-115953530D01*
X62614602Y-115953530D01*
X62615943Y-115886258D01*
X62621761Y-115720305D01*
X62631567Y-115593409D01*
X62647299Y-115498654D01*
X62670894Y-115429120D01*
X62704291Y-115377890D01*
X62749427Y-115338046D01*
X62808239Y-115302669D01*
X62838580Y-115289163D01*
X62943541Y-115263669D01*
X63070134Y-115253129D01*
X63201017Y-115257350D01*
X63318845Y-115276140D01*
X63406275Y-115309305D01*
X63436687Y-115328562D01*
X63506705Y-115385636D01*
X63530403Y-115433427D01*
X63524648Y-115442662D01*
X63488782Y-115474919D01*
X63430881Y-115517950D01*
X63401279Y-115538091D01*
X63350868Y-115566629D01*
X63318110Y-115569354D01*
X63287695Y-115549657D01*
X63211892Y-115509766D01*
X63109895Y-115493361D01*
X63005661Y-115505920D01*
X63003689Y-115506489D01*
X62930171Y-115538431D01*
X62893781Y-115588428D01*
X62883715Y-115671116D01*
X62883334Y-115749780D01*
X63143230Y-115758273D01*
X63184636Y-115759670D01*
X63289027Y-115764528D01*
X63359010Y-115772161D01*
X63406313Y-115785425D01*
X63442668Y-115807181D01*
X63479804Y-115840285D01*
X63541120Y-115916855D01*
X63586059Y-116030157D01*
X63590465Y-116108122D01*
X63592760Y-116148738D01*
G37*
X68381123Y-116144559D02*
X68380841Y-116147844D01*
X68350497Y-116275772D01*
X68283002Y-116371986D01*
X68175000Y-116441318D01*
X68119189Y-116458186D01*
X68023593Y-116471333D01*
X67919055Y-116474472D01*
X67824738Y-116467237D01*
X67759808Y-116449262D01*
X67720370Y-116434864D01*
X67681758Y-116449262D01*
X67667634Y-116457604D01*
X67611261Y-116471131D01*
X67535020Y-116476471D01*
X67415491Y-116476471D01*
X67415491Y-115994565D01*
X67415500Y-115953530D01*
X67689412Y-115953530D01*
X67689412Y-116049278D01*
X67698619Y-116122143D01*
X67734951Y-116186239D01*
X67755744Y-116200110D01*
X67829958Y-116221731D01*
X67922610Y-116227129D01*
X68013468Y-116216162D01*
X68082303Y-116188686D01*
X68116595Y-116152358D01*
X68137647Y-116087808D01*
X68118977Y-116036639D01*
X68057259Y-115992148D01*
X67958047Y-115963605D01*
X67827173Y-115953530D01*
X67689412Y-115953530D01*
X67415500Y-115953530D01*
X67415500Y-115952890D01*
X67415954Y-115795810D01*
X67417658Y-115679029D01*
X67421385Y-115594788D01*
X67427911Y-115535329D01*
X67438008Y-115492891D01*
X67452452Y-115459716D01*
X67472016Y-115428045D01*
X67534949Y-115353837D01*
X67624130Y-115297180D01*
X67741280Y-115265922D01*
X67895653Y-115256313D01*
X67900671Y-115256323D01*
X68007980Y-115261170D01*
X68104028Y-115273252D01*
X68169575Y-115290191D01*
X68187545Y-115298679D01*
X68244740Y-115334627D01*
X68296499Y-115377352D01*
X68330553Y-115415800D01*
X68334635Y-115438916D01*
X68326669Y-115445164D01*
X68239875Y-115511855D01*
X68181839Y-115551188D01*
X68143465Y-115567057D01*
X68115659Y-115563359D01*
X68089327Y-115543990D01*
X68040730Y-115519809D01*
X67958833Y-115503687D01*
X67866273Y-115499505D01*
X67782519Y-115508015D01*
X67727035Y-115529972D01*
X67724116Y-115532644D01*
X67699183Y-115582836D01*
X67689412Y-115657755D01*
X67689412Y-115754314D01*
X67919755Y-115754407D01*
X68025565Y-115756082D01*
X68114632Y-115763368D01*
X68178345Y-115778357D01*
X68229821Y-115803110D01*
X68241800Y-115810712D01*
X68328466Y-115894282D01*
X68374564Y-116004790D01*
X68378460Y-116087808D01*
X68381123Y-116144559D01*
G36*
X68381123Y-116144559D02*
G01*
X68380841Y-116147844D01*
X68350497Y-116275772D01*
X68283002Y-116371986D01*
X68175000Y-116441318D01*
X68119189Y-116458186D01*
X68023593Y-116471333D01*
X67919055Y-116474472D01*
X67824738Y-116467237D01*
X67759808Y-116449262D01*
X67720370Y-116434864D01*
X67681758Y-116449262D01*
X67667634Y-116457604D01*
X67611261Y-116471131D01*
X67535020Y-116476471D01*
X67415491Y-116476471D01*
X67415491Y-115994565D01*
X67415500Y-115953530D01*
X67689412Y-115953530D01*
X67689412Y-116049278D01*
X67698619Y-116122143D01*
X67734951Y-116186239D01*
X67755744Y-116200110D01*
X67829958Y-116221731D01*
X67922610Y-116227129D01*
X68013468Y-116216162D01*
X68082303Y-116188686D01*
X68116595Y-116152358D01*
X68137647Y-116087808D01*
X68118977Y-116036639D01*
X68057259Y-115992148D01*
X67958047Y-115963605D01*
X67827173Y-115953530D01*
X67689412Y-115953530D01*
X67415500Y-115953530D01*
X67415500Y-115952890D01*
X67415954Y-115795810D01*
X67417658Y-115679029D01*
X67421385Y-115594788D01*
X67427911Y-115535329D01*
X67438008Y-115492891D01*
X67452452Y-115459716D01*
X67472016Y-115428045D01*
X67534949Y-115353837D01*
X67624130Y-115297180D01*
X67741280Y-115265922D01*
X67895653Y-115256313D01*
X67900671Y-115256323D01*
X68007980Y-115261170D01*
X68104028Y-115273252D01*
X68169575Y-115290191D01*
X68187545Y-115298679D01*
X68244740Y-115334627D01*
X68296499Y-115377352D01*
X68330553Y-115415800D01*
X68334635Y-115438916D01*
X68326669Y-115445164D01*
X68239875Y-115511855D01*
X68181839Y-115551188D01*
X68143465Y-115567057D01*
X68115659Y-115563359D01*
X68089327Y-115543990D01*
X68040730Y-115519809D01*
X67958833Y-115503687D01*
X67866273Y-115499505D01*
X67782519Y-115508015D01*
X67727035Y-115529972D01*
X67724116Y-115532644D01*
X67699183Y-115582836D01*
X67689412Y-115657755D01*
X67689412Y-115754314D01*
X67919755Y-115754407D01*
X68025565Y-115756082D01*
X68114632Y-115763368D01*
X68178345Y-115778357D01*
X68229821Y-115803110D01*
X68241800Y-115810712D01*
X68328466Y-115894282D01*
X68374564Y-116004790D01*
X68378460Y-116087808D01*
X68381123Y-116144559D01*
G37*
X69507255Y-116479073D02*
X69376520Y-116471547D01*
X69245785Y-116464020D01*
X69239569Y-116065588D01*
X69237730Y-115968704D01*
X69232510Y-115823146D01*
X69223550Y-115716334D01*
X69209203Y-115641087D01*
X69187821Y-115590227D01*
X69157759Y-115556574D01*
X69117367Y-115532947D01*
X69041578Y-115508818D01*
X68966207Y-115518194D01*
X68886617Y-115569763D01*
X68810000Y-115634231D01*
X68810000Y-116476471D01*
X68536079Y-116476471D01*
X68536079Y-116019701D01*
X68536342Y-115876531D01*
X68537799Y-115749309D01*
X68541301Y-115656184D01*
X68547697Y-115588713D01*
X68557835Y-115538454D01*
X68572563Y-115496966D01*
X68592729Y-115455805D01*
X68597510Y-115447066D01*
X68661101Y-115361954D01*
X68735527Y-115302476D01*
X68825255Y-115271245D01*
X68944072Y-115257342D01*
X69063059Y-115264872D01*
X69159865Y-115294267D01*
X69233334Y-115332259D01*
X69233334Y-114510015D01*
X69132667Y-114562486D01*
X69090616Y-114581549D01*
X68957886Y-114608506D01*
X68825979Y-114589874D01*
X68703705Y-114527929D01*
X68599872Y-114424943D01*
X68583606Y-114400738D01*
X68567973Y-114365256D01*
X68557776Y-114317015D01*
X68551888Y-114246757D01*
X68549182Y-114145221D01*
X68548696Y-114039428D01*
X68811759Y-114039428D01*
X68811981Y-114127779D01*
X68818735Y-114186700D01*
X68833916Y-114228752D01*
X68859417Y-114266499D01*
X68891811Y-114301594D01*
X68943614Y-114328154D01*
X69021667Y-114334902D01*
X69090618Y-114329029D01*
X69158865Y-114299641D01*
X69202818Y-114240107D01*
X69226350Y-114144423D01*
X69233334Y-114006582D01*
X69231528Y-113933254D01*
X69213501Y-113794833D01*
X69176308Y-113701233D01*
X69120159Y-113653116D01*
X69063449Y-113639579D01*
X68964686Y-113645925D01*
X68881240Y-113685223D01*
X68861268Y-113703244D01*
X68840105Y-113734422D01*
X68827021Y-113780833D01*
X68819251Y-113854000D01*
X68814032Y-113965448D01*
X68811759Y-114039428D01*
X68548696Y-114039428D01*
X68548530Y-114003149D01*
X68548753Y-113938324D01*
X68552570Y-113787538D01*
X68563203Y-113674896D01*
X68583335Y-113591885D01*
X68615653Y-113529991D01*
X68662842Y-113480700D01*
X68727588Y-113435499D01*
X68780091Y-113409560D01*
X68904571Y-113380953D01*
X69035781Y-113384851D01*
X69152402Y-113421935D01*
X69202453Y-113446176D01*
X69227626Y-113448681D01*
X69233334Y-113426620D01*
X69233339Y-113425952D01*
X69245640Y-113403426D01*
X69288065Y-113391879D01*
X69370295Y-113388628D01*
X69507255Y-113388628D01*
X69507255Y-114006582D01*
X69507255Y-116479073D01*
G36*
X69507255Y-116479073D02*
G01*
X69376520Y-116471547D01*
X69245785Y-116464020D01*
X69239569Y-116065588D01*
X69237730Y-115968704D01*
X69232510Y-115823146D01*
X69223550Y-115716334D01*
X69209203Y-115641087D01*
X69187821Y-115590227D01*
X69157759Y-115556574D01*
X69117367Y-115532947D01*
X69041578Y-115508818D01*
X68966207Y-115518194D01*
X68886617Y-115569763D01*
X68810000Y-115634231D01*
X68810000Y-116476471D01*
X68536079Y-116476471D01*
X68536079Y-116019701D01*
X68536342Y-115876531D01*
X68537799Y-115749309D01*
X68541301Y-115656184D01*
X68547697Y-115588713D01*
X68557835Y-115538454D01*
X68572563Y-115496966D01*
X68592729Y-115455805D01*
X68597510Y-115447066D01*
X68661101Y-115361954D01*
X68735527Y-115302476D01*
X68825255Y-115271245D01*
X68944072Y-115257342D01*
X69063059Y-115264872D01*
X69159865Y-115294267D01*
X69233334Y-115332259D01*
X69233334Y-114510015D01*
X69132667Y-114562486D01*
X69090616Y-114581549D01*
X68957886Y-114608506D01*
X68825979Y-114589874D01*
X68703705Y-114527929D01*
X68599872Y-114424943D01*
X68583606Y-114400738D01*
X68567973Y-114365256D01*
X68557776Y-114317015D01*
X68551888Y-114246757D01*
X68549182Y-114145221D01*
X68548696Y-114039428D01*
X68811759Y-114039428D01*
X68811981Y-114127779D01*
X68818735Y-114186700D01*
X68833916Y-114228752D01*
X68859417Y-114266499D01*
X68891811Y-114301594D01*
X68943614Y-114328154D01*
X69021667Y-114334902D01*
X69090618Y-114329029D01*
X69158865Y-114299641D01*
X69202818Y-114240107D01*
X69226350Y-114144423D01*
X69233334Y-114006582D01*
X69231528Y-113933254D01*
X69213501Y-113794833D01*
X69176308Y-113701233D01*
X69120159Y-113653116D01*
X69063449Y-113639579D01*
X68964686Y-113645925D01*
X68881240Y-113685223D01*
X68861268Y-113703244D01*
X68840105Y-113734422D01*
X68827021Y-113780833D01*
X68819251Y-113854000D01*
X68814032Y-113965448D01*
X68811759Y-114039428D01*
X68548696Y-114039428D01*
X68548530Y-114003149D01*
X68548753Y-113938324D01*
X68552570Y-113787538D01*
X68563203Y-113674896D01*
X68583335Y-113591885D01*
X68615653Y-113529991D01*
X68662842Y-113480700D01*
X68727588Y-113435499D01*
X68780091Y-113409560D01*
X68904571Y-113380953D01*
X69035781Y-113384851D01*
X69152402Y-113421935D01*
X69202453Y-113446176D01*
X69227626Y-113448681D01*
X69233334Y-113426620D01*
X69233339Y-113425952D01*
X69245640Y-113403426D01*
X69288065Y-113391879D01*
X69370295Y-113388628D01*
X69507255Y-113388628D01*
X69507255Y-114006582D01*
X69507255Y-116479073D01*
G37*
X65721634Y-105133172D02*
X65834216Y-105730363D01*
X66249629Y-105901610D01*
X66665043Y-106072857D01*
X67163400Y-105733978D01*
X67262036Y-105667170D01*
X67392797Y-105579479D01*
X67506008Y-105504580D01*
X67595789Y-105446320D01*
X67656261Y-105408545D01*
X67681544Y-105395098D01*
X67697072Y-105404661D01*
X67743487Y-105444730D01*
X67813730Y-105510487D01*
X67901848Y-105595895D01*
X68001889Y-105694915D01*
X68107902Y-105801509D01*
X68213935Y-105909640D01*
X68314035Y-106013268D01*
X68402251Y-106106358D01*
X68472632Y-106182869D01*
X68519225Y-106236765D01*
X68536079Y-106262007D01*
X68532158Y-106272852D01*
X68505012Y-106321228D01*
X68455439Y-106400842D01*
X68387459Y-106505454D01*
X68305091Y-106628822D01*
X68212353Y-106764706D01*
X68161460Y-106838815D01*
X68073912Y-106967835D01*
X67998853Y-107080434D01*
X67940285Y-107170505D01*
X67902209Y-107231942D01*
X67888628Y-107258640D01*
X67888851Y-107260119D01*
X67900831Y-107293962D01*
X67928316Y-107363071D01*
X67967474Y-107458416D01*
X68014474Y-107570972D01*
X68065485Y-107691710D01*
X68116676Y-107811602D01*
X68164215Y-107921622D01*
X68204271Y-108012740D01*
X68233013Y-108075931D01*
X68246610Y-108102165D01*
X68254655Y-108104492D01*
X68303535Y-108114988D01*
X68390652Y-108132376D01*
X68509033Y-108155295D01*
X68651704Y-108182389D01*
X68811692Y-108212296D01*
X68896015Y-108228153D01*
X69050783Y-108258407D01*
X69186104Y-108286347D01*
X69294582Y-108310369D01*
X69368820Y-108328868D01*
X69401422Y-108340238D01*
X69407278Y-108351511D01*
X69416992Y-108406586D01*
X69424624Y-108498317D01*
X69430180Y-108618073D01*
X69433666Y-108757221D01*
X69435087Y-108907131D01*
X69434450Y-109059172D01*
X69431760Y-109204712D01*
X69427024Y-109335121D01*
X69420247Y-109441766D01*
X69411436Y-109516018D01*
X69400595Y-109549245D01*
X69394017Y-109552993D01*
X69344955Y-109569069D01*
X69259847Y-109590338D01*
X69148529Y-109614472D01*
X69020840Y-109639143D01*
X68977757Y-109647000D01*
X68778773Y-109683542D01*
X68622388Y-109712910D01*
X68503183Y-109736321D01*
X68415737Y-109754994D01*
X68354628Y-109770146D01*
X68314435Y-109782995D01*
X68289738Y-109794758D01*
X68275116Y-109806653D01*
X68273416Y-109808649D01*
X68249504Y-109850271D01*
X68214119Y-109926430D01*
X68170692Y-110028193D01*
X68122651Y-110146624D01*
X68073425Y-110272789D01*
X68026445Y-110397754D01*
X67985140Y-110512584D01*
X67952939Y-110608344D01*
X67933271Y-110676100D01*
X67929565Y-110706917D01*
X67932043Y-110710915D01*
X67957689Y-110749584D01*
X68005920Y-110820907D01*
X68072262Y-110918314D01*
X68152245Y-111035234D01*
X68241397Y-111165098D01*
X68265865Y-111200828D01*
X68351903Y-111328990D01*
X68426258Y-111443608D01*
X68484688Y-111537887D01*
X68522947Y-111605029D01*
X68536792Y-111638235D01*
X68533809Y-111646965D01*
X68502711Y-111689982D01*
X68441355Y-111760230D01*
X68354137Y-111852979D01*
X68245449Y-111963502D01*
X68119685Y-112087071D01*
X68047800Y-112156235D01*
X67934139Y-112263957D01*
X67834657Y-112356225D01*
X67754695Y-112428181D01*
X67699595Y-112474968D01*
X67674698Y-112491727D01*
X67657593Y-112485515D01*
X67604929Y-112456126D01*
X67528449Y-112408063D01*
X67438129Y-112347412D01*
X67373911Y-112303153D01*
X67245705Y-112215261D01*
X67108894Y-112121915D01*
X66983932Y-112037091D01*
X66739137Y-111871515D01*
X66533649Y-111982620D01*
X66485263Y-112008265D01*
X66397270Y-112052130D01*
X66329223Y-112082414D01*
X66292856Y-112093706D01*
X66280954Y-112079205D01*
X66251400Y-112023992D01*
X66207748Y-111932962D01*
X66152426Y-111811892D01*
X66087863Y-111666559D01*
X66016489Y-111502741D01*
X65940732Y-111326213D01*
X65863022Y-111142753D01*
X65785786Y-110958138D01*
X65711456Y-110778146D01*
X65642458Y-110608552D01*
X65581223Y-110455135D01*
X65530179Y-110323670D01*
X65491755Y-110219936D01*
X65468380Y-110149709D01*
X65462483Y-110118766D01*
X65462883Y-110117862D01*
X65490349Y-110089257D01*
X65547799Y-110044457D01*
X65623373Y-109992751D01*
X65647227Y-109976962D01*
X65828734Y-109827174D01*
X65978953Y-109648767D01*
X66094327Y-109449165D01*
X66171299Y-109235797D01*
X66206314Y-109016087D01*
X66195813Y-108797462D01*
X66153277Y-108603011D01*
X66076903Y-108406657D01*
X65965565Y-108231484D01*
X65812774Y-108065082D01*
X65752739Y-108011924D01*
X65558658Y-107880951D01*
X65348999Y-107792744D01*
X65129837Y-107746512D01*
X64907247Y-107741467D01*
X64687307Y-107776820D01*
X64476090Y-107851779D01*
X64279673Y-107965557D01*
X64104132Y-108117363D01*
X63955542Y-108306409D01*
X63926974Y-108353224D01*
X63829873Y-108567204D01*
X63778303Y-108790026D01*
X63770914Y-109015922D01*
X63806355Y-109239119D01*
X63883276Y-109453847D01*
X64000326Y-109654336D01*
X64156155Y-109834814D01*
X64349413Y-109989510D01*
X64355689Y-109993679D01*
X64430461Y-110046370D01*
X64486504Y-110091169D01*
X64512100Y-110118766D01*
X64508870Y-110140402D01*
X64488790Y-110203399D01*
X64453184Y-110301038D01*
X64404480Y-110427542D01*
X64345108Y-110577132D01*
X64277494Y-110744030D01*
X64204066Y-110922457D01*
X64127254Y-111106636D01*
X64049484Y-111290787D01*
X63973185Y-111469133D01*
X63900784Y-111635895D01*
X63834710Y-111785294D01*
X63777391Y-111911554D01*
X63731255Y-112008894D01*
X63698730Y-112071538D01*
X63682243Y-112093706D01*
X63668533Y-112090703D01*
X63614670Y-112069126D01*
X63535064Y-112031293D01*
X63441449Y-111982620D01*
X63235962Y-111871515D01*
X62991167Y-112037091D01*
X62918845Y-112086120D01*
X62784326Y-112177729D01*
X62650215Y-112269485D01*
X62536970Y-112347412D01*
X62474470Y-112389881D01*
X62393239Y-112442644D01*
X62333009Y-112478765D01*
X62303591Y-112492157D01*
X62290953Y-112486471D01*
X62245267Y-112451645D01*
X62174838Y-112390329D01*
X62085796Y-112308554D01*
X61984272Y-112212351D01*
X61876394Y-112107751D01*
X61768295Y-112000786D01*
X61666103Y-111897485D01*
X61575950Y-111803882D01*
X61503964Y-111726006D01*
X61456278Y-111669889D01*
X61439020Y-111641562D01*
X61440015Y-111636172D01*
X61460555Y-111592304D01*
X61504434Y-111516407D01*
X61567412Y-111415336D01*
X61645247Y-111295948D01*
X61733701Y-111165098D01*
X61758509Y-111129005D01*
X61845618Y-111002000D01*
X61922347Y-110889718D01*
X61984224Y-110798730D01*
X62026777Y-110735606D01*
X62045534Y-110706917D01*
X62045995Y-110705687D01*
X62040459Y-110670588D01*
X62019320Y-110599484D01*
X61986005Y-110501310D01*
X61943945Y-110385002D01*
X61896570Y-110259493D01*
X61847308Y-110133718D01*
X61799589Y-110016612D01*
X61756842Y-109917110D01*
X61722497Y-109844145D01*
X61699983Y-109806653D01*
X61697728Y-109804325D01*
X61681608Y-109792549D01*
X61654383Y-109780673D01*
X61610633Y-109767481D01*
X61544935Y-109751754D01*
X61451870Y-109732274D01*
X61326016Y-109707824D01*
X61161953Y-109677186D01*
X60954259Y-109639143D01*
X60911181Y-109631136D01*
X60787777Y-109606384D01*
X60683972Y-109582933D01*
X60609601Y-109563110D01*
X60574504Y-109549245D01*
X60568632Y-109537677D01*
X60558842Y-109482110D01*
X60551085Y-109389990D01*
X60545365Y-109269951D01*
X60541689Y-109130622D01*
X60540062Y-108980635D01*
X60540491Y-108828621D01*
X60542982Y-108683212D01*
X60547540Y-108553037D01*
X60554171Y-108446730D01*
X60562881Y-108372919D01*
X60573677Y-108340238D01*
X60584699Y-108335410D01*
X60639531Y-108320191D01*
X60732213Y-108298666D01*
X60855351Y-108272439D01*
X61001548Y-108243114D01*
X61163406Y-108212296D01*
X61251784Y-108195831D01*
X61403259Y-108167279D01*
X61533640Y-108142277D01*
X61635954Y-108122185D01*
X61703228Y-108108362D01*
X61728489Y-108102165D01*
X61729438Y-108100888D01*
X61745526Y-108068437D01*
X61776194Y-108000452D01*
X61817611Y-107905954D01*
X61865941Y-107793964D01*
X61917354Y-107673500D01*
X61968014Y-107553584D01*
X62014089Y-107443235D01*
X62051746Y-107351473D01*
X62077151Y-107287319D01*
X62086471Y-107259792D01*
X62082360Y-107250106D01*
X62055000Y-107204018D01*
X62005370Y-107126440D01*
X61937460Y-107023461D01*
X61855255Y-106901167D01*
X61762746Y-106765646D01*
X61711991Y-106691429D01*
X61624403Y-106561309D01*
X61549306Y-106447112D01*
X61490707Y-106355066D01*
X61452609Y-106291398D01*
X61439020Y-106262337D01*
X61448462Y-106246573D01*
X61487960Y-106199471D01*
X61552758Y-106128186D01*
X61636909Y-106038760D01*
X61734464Y-105937232D01*
X61839474Y-105829643D01*
X61945993Y-105722034D01*
X62048071Y-105620445D01*
X62139760Y-105530917D01*
X62215112Y-105459489D01*
X62268180Y-105412203D01*
X62293014Y-105395098D01*
X62306799Y-105401749D01*
X62357418Y-105432592D01*
X62439105Y-105485083D01*
X62545972Y-105555375D01*
X62672132Y-105639622D01*
X62811698Y-105733978D01*
X63310056Y-106072857D01*
X63725469Y-105901610D01*
X64140883Y-105730363D01*
X64253465Y-105133172D01*
X64366048Y-104535980D01*
X65609051Y-104535980D01*
X65721634Y-105133172D01*
G36*
X65721634Y-105133172D02*
G01*
X65834216Y-105730363D01*
X66249629Y-105901610D01*
X66665043Y-106072857D01*
X67163400Y-105733978D01*
X67262036Y-105667170D01*
X67392797Y-105579479D01*
X67506008Y-105504580D01*
X67595789Y-105446320D01*
X67656261Y-105408545D01*
X67681544Y-105395098D01*
X67697072Y-105404661D01*
X67743487Y-105444730D01*
X67813730Y-105510487D01*
X67901848Y-105595895D01*
X68001889Y-105694915D01*
X68107902Y-105801509D01*
X68213935Y-105909640D01*
X68314035Y-106013268D01*
X68402251Y-106106358D01*
X68472632Y-106182869D01*
X68519225Y-106236765D01*
X68536079Y-106262007D01*
X68532158Y-106272852D01*
X68505012Y-106321228D01*
X68455439Y-106400842D01*
X68387459Y-106505454D01*
X68305091Y-106628822D01*
X68212353Y-106764706D01*
X68161460Y-106838815D01*
X68073912Y-106967835D01*
X67998853Y-107080434D01*
X67940285Y-107170505D01*
X67902209Y-107231942D01*
X67888628Y-107258640D01*
X67888851Y-107260119D01*
X67900831Y-107293962D01*
X67928316Y-107363071D01*
X67967474Y-107458416D01*
X68014474Y-107570972D01*
X68065485Y-107691710D01*
X68116676Y-107811602D01*
X68164215Y-107921622D01*
X68204271Y-108012740D01*
X68233013Y-108075931D01*
X68246610Y-108102165D01*
X68254655Y-108104492D01*
X68303535Y-108114988D01*
X68390652Y-108132376D01*
X68509033Y-108155295D01*
X68651704Y-108182389D01*
X68811692Y-108212296D01*
X68896015Y-108228153D01*
X69050783Y-108258407D01*
X69186104Y-108286347D01*
X69294582Y-108310369D01*
X69368820Y-108328868D01*
X69401422Y-108340238D01*
X69407278Y-108351511D01*
X69416992Y-108406586D01*
X69424624Y-108498317D01*
X69430180Y-108618073D01*
X69433666Y-108757221D01*
X69435087Y-108907131D01*
X69434450Y-109059172D01*
X69431760Y-109204712D01*
X69427024Y-109335121D01*
X69420247Y-109441766D01*
X69411436Y-109516018D01*
X69400595Y-109549245D01*
X69394017Y-109552993D01*
X69344955Y-109569069D01*
X69259847Y-109590338D01*
X69148529Y-109614472D01*
X69020840Y-109639143D01*
X68977757Y-109647000D01*
X68778773Y-109683542D01*
X68622388Y-109712910D01*
X68503183Y-109736321D01*
X68415737Y-109754994D01*
X68354628Y-109770146D01*
X68314435Y-109782995D01*
X68289738Y-109794758D01*
X68275116Y-109806653D01*
X68273416Y-109808649D01*
X68249504Y-109850271D01*
X68214119Y-109926430D01*
X68170692Y-110028193D01*
X68122651Y-110146624D01*
X68073425Y-110272789D01*
X68026445Y-110397754D01*
X67985140Y-110512584D01*
X67952939Y-110608344D01*
X67933271Y-110676100D01*
X67929565Y-110706917D01*
X67932043Y-110710915D01*
X67957689Y-110749584D01*
X68005920Y-110820907D01*
X68072262Y-110918314D01*
X68152245Y-111035234D01*
X68241397Y-111165098D01*
X68265865Y-111200828D01*
X68351903Y-111328990D01*
X68426258Y-111443608D01*
X68484688Y-111537887D01*
X68522947Y-111605029D01*
X68536792Y-111638235D01*
X68533809Y-111646965D01*
X68502711Y-111689982D01*
X68441355Y-111760230D01*
X68354137Y-111852979D01*
X68245449Y-111963502D01*
X68119685Y-112087071D01*
X68047800Y-112156235D01*
X67934139Y-112263957D01*
X67834657Y-112356225D01*
X67754695Y-112428181D01*
X67699595Y-112474968D01*
X67674698Y-112491727D01*
X67657593Y-112485515D01*
X67604929Y-112456126D01*
X67528449Y-112408063D01*
X67438129Y-112347412D01*
X67373911Y-112303153D01*
X67245705Y-112215261D01*
X67108894Y-112121915D01*
X66983932Y-112037091D01*
X66739137Y-111871515D01*
X66533649Y-111982620D01*
X66485263Y-112008265D01*
X66397270Y-112052130D01*
X66329223Y-112082414D01*
X66292856Y-112093706D01*
X66280954Y-112079205D01*
X66251400Y-112023992D01*
X66207748Y-111932962D01*
X66152426Y-111811892D01*
X66087863Y-111666559D01*
X66016489Y-111502741D01*
X65940732Y-111326213D01*
X65863022Y-111142753D01*
X65785786Y-110958138D01*
X65711456Y-110778146D01*
X65642458Y-110608552D01*
X65581223Y-110455135D01*
X65530179Y-110323670D01*
X65491755Y-110219936D01*
X65468380Y-110149709D01*
X65462483Y-110118766D01*
X65462883Y-110117862D01*
X65490349Y-110089257D01*
X65547799Y-110044457D01*
X65623373Y-109992751D01*
X65647227Y-109976962D01*
X65828734Y-109827174D01*
X65978953Y-109648767D01*
X66094327Y-109449165D01*
X66171299Y-109235797D01*
X66206314Y-109016087D01*
X66195813Y-108797462D01*
X66153277Y-108603011D01*
X66076903Y-108406657D01*
X65965565Y-108231484D01*
X65812774Y-108065082D01*
X65752739Y-108011924D01*
X65558658Y-107880951D01*
X65348999Y-107792744D01*
X65129837Y-107746512D01*
X64907247Y-107741467D01*
X64687307Y-107776820D01*
X64476090Y-107851779D01*
X64279673Y-107965557D01*
X64104132Y-108117363D01*
X63955542Y-108306409D01*
X63926974Y-108353224D01*
X63829873Y-108567204D01*
X63778303Y-108790026D01*
X63770914Y-109015922D01*
X63806355Y-109239119D01*
X63883276Y-109453847D01*
X64000326Y-109654336D01*
X64156155Y-109834814D01*
X64349413Y-109989510D01*
X64355689Y-109993679D01*
X64430461Y-110046370D01*
X64486504Y-110091169D01*
X64512100Y-110118766D01*
X64508870Y-110140402D01*
X64488790Y-110203399D01*
X64453184Y-110301038D01*
X64404480Y-110427542D01*
X64345108Y-110577132D01*
X64277494Y-110744030D01*
X64204066Y-110922457D01*
X64127254Y-111106636D01*
X64049484Y-111290787D01*
X63973185Y-111469133D01*
X63900784Y-111635895D01*
X63834710Y-111785294D01*
X63777391Y-111911554D01*
X63731255Y-112008894D01*
X63698730Y-112071538D01*
X63682243Y-112093706D01*
X63668533Y-112090703D01*
X63614670Y-112069126D01*
X63535064Y-112031293D01*
X63441449Y-111982620D01*
X63235962Y-111871515D01*
X62991167Y-112037091D01*
X62918845Y-112086120D01*
X62784326Y-112177729D01*
X62650215Y-112269485D01*
X62536970Y-112347412D01*
X62474470Y-112389881D01*
X62393239Y-112442644D01*
X62333009Y-112478765D01*
X62303591Y-112492157D01*
X62290953Y-112486471D01*
X62245267Y-112451645D01*
X62174838Y-112390329D01*
X62085796Y-112308554D01*
X61984272Y-112212351D01*
X61876394Y-112107751D01*
X61768295Y-112000786D01*
X61666103Y-111897485D01*
X61575950Y-111803882D01*
X61503964Y-111726006D01*
X61456278Y-111669889D01*
X61439020Y-111641562D01*
X61440015Y-111636172D01*
X61460555Y-111592304D01*
X61504434Y-111516407D01*
X61567412Y-111415336D01*
X61645247Y-111295948D01*
X61733701Y-111165098D01*
X61758509Y-111129005D01*
X61845618Y-111002000D01*
X61922347Y-110889718D01*
X61984224Y-110798730D01*
X62026777Y-110735606D01*
X62045534Y-110706917D01*
X62045995Y-110705687D01*
X62040459Y-110670588D01*
X62019320Y-110599484D01*
X61986005Y-110501310D01*
X61943945Y-110385002D01*
X61896570Y-110259493D01*
X61847308Y-110133718D01*
X61799589Y-110016612D01*
X61756842Y-109917110D01*
X61722497Y-109844145D01*
X61699983Y-109806653D01*
X61697728Y-109804325D01*
X61681608Y-109792549D01*
X61654383Y-109780673D01*
X61610633Y-109767481D01*
X61544935Y-109751754D01*
X61451870Y-109732274D01*
X61326016Y-109707824D01*
X61161953Y-109677186D01*
X60954259Y-109639143D01*
X60911181Y-109631136D01*
X60787777Y-109606384D01*
X60683972Y-109582933D01*
X60609601Y-109563110D01*
X60574504Y-109549245D01*
X60568632Y-109537677D01*
X60558842Y-109482110D01*
X60551085Y-109389990D01*
X60545365Y-109269951D01*
X60541689Y-109130622D01*
X60540062Y-108980635D01*
X60540491Y-108828621D01*
X60542982Y-108683212D01*
X60547540Y-108553037D01*
X60554171Y-108446730D01*
X60562881Y-108372919D01*
X60573677Y-108340238D01*
X60584699Y-108335410D01*
X60639531Y-108320191D01*
X60732213Y-108298666D01*
X60855351Y-108272439D01*
X61001548Y-108243114D01*
X61163406Y-108212296D01*
X61251784Y-108195831D01*
X61403259Y-108167279D01*
X61533640Y-108142277D01*
X61635954Y-108122185D01*
X61703228Y-108108362D01*
X61728489Y-108102165D01*
X61729438Y-108100888D01*
X61745526Y-108068437D01*
X61776194Y-108000452D01*
X61817611Y-107905954D01*
X61865941Y-107793964D01*
X61917354Y-107673500D01*
X61968014Y-107553584D01*
X62014089Y-107443235D01*
X62051746Y-107351473D01*
X62077151Y-107287319D01*
X62086471Y-107259792D01*
X62082360Y-107250106D01*
X62055000Y-107204018D01*
X62005370Y-107126440D01*
X61937460Y-107023461D01*
X61855255Y-106901167D01*
X61762746Y-106765646D01*
X61711991Y-106691429D01*
X61624403Y-106561309D01*
X61549306Y-106447112D01*
X61490707Y-106355066D01*
X61452609Y-106291398D01*
X61439020Y-106262337D01*
X61448462Y-106246573D01*
X61487960Y-106199471D01*
X61552758Y-106128186D01*
X61636909Y-106038760D01*
X61734464Y-105937232D01*
X61839474Y-105829643D01*
X61945993Y-105722034D01*
X62048071Y-105620445D01*
X62139760Y-105530917D01*
X62215112Y-105459489D01*
X62268180Y-105412203D01*
X62293014Y-105395098D01*
X62306799Y-105401749D01*
X62357418Y-105432592D01*
X62439105Y-105485083D01*
X62545972Y-105555375D01*
X62672132Y-105639622D01*
X62811698Y-105733978D01*
X63310056Y-106072857D01*
X63725469Y-105901610D01*
X64140883Y-105730363D01*
X64253465Y-105133172D01*
X64366048Y-104535980D01*
X65609051Y-104535980D01*
X65721634Y-105133172D01*
G37*
D12*
%TO.C,G\u002A\u002A\u002A*%
G36*
X104608439Y-59678481D02*
G01*
X104608439Y-62357806D01*
X102411392Y-62357806D01*
X100214346Y-62357806D01*
X100214346Y-61768355D01*
X100214346Y-61178903D01*
X101661181Y-61178903D01*
X103108017Y-61178903D01*
X103108017Y-59089030D01*
X103108017Y-56999156D01*
X103858228Y-56999156D01*
X104608439Y-56999156D01*
X104608439Y-59678481D01*
G37*
G36*
X79553960Y-58594356D02*
G01*
X79583544Y-60189556D01*
X80655274Y-58598690D01*
X81727004Y-57007824D01*
X82557595Y-57003490D01*
X83388186Y-56999156D01*
X83388186Y-59678481D01*
X83388186Y-62357806D01*
X82640840Y-62357806D01*
X81893494Y-62357806D01*
X81863836Y-60796286D01*
X81834177Y-59234766D01*
X80762447Y-60796064D01*
X79690717Y-62357362D01*
X78860127Y-62357584D01*
X78029536Y-62357806D01*
X78029536Y-59678481D01*
X78029536Y-56999156D01*
X78776955Y-56999156D01*
X79524375Y-56999156D01*
X79553960Y-58594356D01*
G37*
G36*
X71996731Y-56153156D02*
G01*
X72251748Y-56191859D01*
X72349367Y-56248945D01*
X72282846Y-56319432D01*
X72081435Y-56356118D01*
X72072043Y-56356132D01*
X71927474Y-56371596D01*
X71850175Y-56450367D01*
X71819175Y-56642776D01*
X71813502Y-56999156D01*
X71802118Y-57289558D01*
X71763416Y-57544575D01*
X71706329Y-57642194D01*
X71657929Y-57573891D01*
X71615426Y-57341675D01*
X71599156Y-56999156D01*
X71599150Y-56976617D01*
X71592707Y-56629652D01*
X71559886Y-56444134D01*
X71479715Y-56369734D01*
X71331224Y-56356118D01*
X71155008Y-56329510D01*
X71063291Y-56248945D01*
X71131594Y-56200545D01*
X71363810Y-56158042D01*
X71706329Y-56141772D01*
X71996731Y-56153156D01*
G37*
G36*
X100107994Y-57020197D02*
G01*
X100470465Y-57042824D01*
X100712251Y-57085609D01*
X100857869Y-57153287D01*
X100931840Y-57250595D01*
X100958683Y-57382270D01*
X100962916Y-57553049D01*
X100962994Y-57569644D01*
X100949146Y-57852602D01*
X100878847Y-58030949D01*
X100712667Y-58128659D01*
X100411177Y-58169705D01*
X99934947Y-58178059D01*
X99035443Y-58178059D01*
X99035443Y-60267933D01*
X99035443Y-62357806D01*
X98285232Y-62357806D01*
X97535021Y-62357806D01*
X97535021Y-60272105D01*
X97535021Y-58186404D01*
X96597257Y-58155438D01*
X95659494Y-58124473D01*
X95659494Y-57588608D01*
X95659494Y-57052743D01*
X98224094Y-57023964D01*
X98922918Y-57016468D01*
X99600318Y-57012991D01*
X100107994Y-57020197D01*
G37*
G36*
X89711392Y-59673973D02*
G01*
X89711392Y-62357806D01*
X88964046Y-62357806D01*
X88216701Y-62357806D01*
X88187042Y-60817443D01*
X88157384Y-59277080D01*
X87100007Y-60817443D01*
X86042631Y-62357806D01*
X85197687Y-62357806D01*
X84352743Y-62357806D01*
X84352743Y-59678481D01*
X84352743Y-56999156D01*
X85102954Y-56999156D01*
X85853165Y-56999156D01*
X85853165Y-58553165D01*
X85854145Y-58795127D01*
X85863488Y-59312094D01*
X85881134Y-59727286D01*
X85905135Y-60003183D01*
X85933544Y-60102266D01*
X85991385Y-60046766D01*
X86154164Y-59839268D01*
X86397637Y-59505438D01*
X86700702Y-59074343D01*
X87042255Y-58575051D01*
X88070586Y-57052743D01*
X88890989Y-57021441D01*
X89711392Y-56990140D01*
X89711392Y-59673973D01*
G37*
G36*
X95070042Y-59678481D02*
G01*
X95070042Y-62357806D01*
X92872996Y-62357806D01*
X90675949Y-62357806D01*
X90675949Y-61771465D01*
X90675949Y-61185124D01*
X92095992Y-61155220D01*
X93516034Y-61125317D01*
X93516034Y-60696625D01*
X93516034Y-60267933D01*
X92122785Y-60214346D01*
X90729536Y-60160760D01*
X90694374Y-59853084D01*
X90686819Y-59595909D01*
X90723209Y-59290426D01*
X90728334Y-59270259D01*
X90763684Y-59172263D01*
X90833634Y-59106211D01*
X90974133Y-59065801D01*
X91221130Y-59044736D01*
X91610573Y-59036717D01*
X92178413Y-59035443D01*
X93569620Y-59035443D01*
X93569620Y-58606751D01*
X93569620Y-58178059D01*
X92122785Y-58178059D01*
X90675949Y-58178059D01*
X90675949Y-57588608D01*
X90675949Y-56999156D01*
X92872996Y-56999156D01*
X95070042Y-56999156D01*
X95070042Y-59678481D01*
G37*
G36*
X70636948Y-56034655D02*
G01*
X70690505Y-56137798D01*
X70727786Y-56404377D01*
X70741772Y-56784810D01*
X70740478Y-56903807D01*
X70714436Y-57272083D01*
X70664865Y-57481915D01*
X70604919Y-57519824D01*
X70547748Y-57372329D01*
X70506505Y-57025949D01*
X70473840Y-56516878D01*
X70263180Y-56865190D01*
X70225443Y-56925733D01*
X70076496Y-57130734D01*
X69978978Y-57213502D01*
X69961570Y-57207514D01*
X69842653Y-57088568D01*
X69682372Y-56865190D01*
X69459307Y-56516878D01*
X69457502Y-57025949D01*
X69447030Y-57283801D01*
X69396000Y-57479176D01*
X69290040Y-57535021D01*
X69231357Y-57522980D01*
X69169716Y-57430516D01*
X69147293Y-57210492D01*
X69156074Y-56820145D01*
X69184560Y-56474895D01*
X69239980Y-56188025D01*
X69309905Y-56064944D01*
X69346438Y-56066505D01*
X69495064Y-56178044D01*
X69666958Y-56404715D01*
X69725105Y-56495401D01*
X69878020Y-56701731D01*
X69973509Y-56783484D01*
X69997177Y-56772653D01*
X70121062Y-56641111D01*
X70287272Y-56408378D01*
X70345739Y-56322514D01*
X70516039Y-56116849D01*
X70635584Y-56034599D01*
X70636948Y-56034655D01*
G37*
G36*
X122935021Y-59668442D02*
G01*
X122935021Y-62357806D01*
X122184810Y-62357806D01*
X121434599Y-62357806D01*
X121434599Y-61570156D01*
X121434599Y-60782507D01*
X120336076Y-60716069D01*
X120227509Y-60709287D01*
X119549131Y-60651830D01*
X119042092Y-60572544D01*
X118668762Y-60460638D01*
X118391512Y-60305325D01*
X118172711Y-60095815D01*
X118096697Y-60001157D01*
X117990370Y-59824516D01*
X117930393Y-59610962D01*
X117903866Y-59301397D01*
X117898688Y-58898771D01*
X119398312Y-58898771D01*
X119402502Y-59014939D01*
X119474278Y-59234173D01*
X119673222Y-59359615D01*
X119899047Y-59410096D01*
X120270032Y-59449174D01*
X120691365Y-59464135D01*
X121434599Y-59464135D01*
X121434599Y-58874684D01*
X121434599Y-58285232D01*
X120545063Y-58285232D01*
X120081520Y-58295328D01*
X119728577Y-58342381D01*
X119521079Y-58445789D01*
X119423000Y-58624827D01*
X119398312Y-58898771D01*
X117898688Y-58898771D01*
X117897890Y-58836721D01*
X117900520Y-58574917D01*
X117931323Y-58113904D01*
X118015363Y-57756635D01*
X118175639Y-57489293D01*
X118435150Y-57298062D01*
X118816896Y-57169126D01*
X119343874Y-57088668D01*
X120039085Y-57042873D01*
X120925527Y-57017923D01*
X122935021Y-56979078D01*
X122935021Y-58874684D01*
X122935021Y-59668442D01*
G37*
G36*
X76565799Y-60355990D02*
G01*
X76832107Y-60995899D01*
X77058260Y-61545630D01*
X77233328Y-61978413D01*
X77346384Y-62267478D01*
X77386498Y-62386057D01*
X77385156Y-62391236D01*
X77266399Y-62428417D01*
X76993229Y-62446952D01*
X76619088Y-62442881D01*
X75851679Y-62411392D01*
X75685970Y-61955907D01*
X75520261Y-61500422D01*
X74431653Y-61500422D01*
X73343045Y-61500422D01*
X73158861Y-61982701D01*
X72974677Y-62464979D01*
X72220830Y-62464979D01*
X72072779Y-62464682D01*
X71741056Y-62456065D01*
X71567463Y-62425358D01*
X71509547Y-62359062D01*
X71524855Y-62243678D01*
X71564085Y-62131556D01*
X71678663Y-61837131D01*
X71855057Y-61398231D01*
X72081342Y-60844217D01*
X72345590Y-60204451D01*
X72352636Y-60187553D01*
X73877317Y-60187553D01*
X73898155Y-60259489D01*
X74073163Y-60307046D01*
X74434996Y-60321519D01*
X74699019Y-60321959D01*
X74889389Y-60302096D01*
X74973012Y-60225855D01*
X74957986Y-60057069D01*
X74852410Y-59759576D01*
X74664382Y-59297210D01*
X74420377Y-58697461D01*
X74174078Y-59375524D01*
X74047503Y-59723351D01*
X73938046Y-60022902D01*
X73877317Y-60187553D01*
X72352636Y-60187553D01*
X72635878Y-59508295D01*
X73689030Y-56994213D01*
X74431057Y-57023478D01*
X75173084Y-57052743D01*
X76279791Y-59675244D01*
X76511124Y-60225855D01*
X76565799Y-60355990D01*
G37*
G36*
X126261901Y-56912368D02*
G01*
X126855150Y-56966458D01*
X127301619Y-57054506D01*
X127728734Y-57231658D01*
X128137598Y-57560136D01*
X128169065Y-57597862D01*
X128307999Y-57790353D01*
X128378050Y-57982722D01*
X128394535Y-58246048D01*
X128372772Y-58651410D01*
X128339786Y-58967761D01*
X128241261Y-59356728D01*
X128057068Y-59645998D01*
X127755213Y-59864832D01*
X127303704Y-60042490D01*
X126670545Y-60208233D01*
X126306160Y-60292243D01*
X125855172Y-60399064D01*
X125561103Y-60479786D01*
X125391921Y-60549314D01*
X125315595Y-60622554D01*
X125300095Y-60714411D01*
X125313389Y-60839791D01*
X125346413Y-61125317D01*
X126873652Y-61125317D01*
X128400891Y-61125317D01*
X128400867Y-61734771D01*
X128400856Y-61780774D01*
X128393732Y-62106175D01*
X128353089Y-62279310D01*
X128249249Y-62356276D01*
X128052532Y-62393171D01*
X128028739Y-62396103D01*
X127763701Y-62412103D01*
X127345065Y-62422207D01*
X126825427Y-62425586D01*
X126257384Y-62421414D01*
X125688262Y-62407776D01*
X125139885Y-62372297D01*
X124732629Y-62306478D01*
X124426026Y-62199787D01*
X124179610Y-62041692D01*
X123952912Y-61821661D01*
X123883408Y-61733481D01*
X123794760Y-61534345D01*
X123750724Y-61241461D01*
X123738819Y-60794981D01*
X123740957Y-60607222D01*
X123776038Y-60200516D01*
X123876891Y-59894076D01*
X124072618Y-59660626D01*
X124392320Y-59472890D01*
X124865101Y-59303590D01*
X125520060Y-59125450D01*
X125703830Y-59078282D01*
X126226664Y-58932379D01*
X126575976Y-58806495D01*
X126780624Y-58684975D01*
X126869467Y-58552163D01*
X126871360Y-58392405D01*
X126864147Y-58369000D01*
X126797837Y-58311023D01*
X126640933Y-58271497D01*
X126362516Y-58247225D01*
X125931665Y-58235007D01*
X125317463Y-58231646D01*
X123792358Y-58231646D01*
X123792382Y-57630329D01*
X123792405Y-57029013D01*
X124355063Y-56961429D01*
X124895781Y-56914295D01*
X125587052Y-56894294D01*
X126261901Y-56912368D01*
G37*
G36*
X110878059Y-59678481D02*
G01*
X110876996Y-60086189D01*
X110868756Y-60636808D01*
X110849391Y-61030780D01*
X110815397Y-61304511D01*
X110763267Y-61494407D01*
X110689497Y-61636871D01*
X110462315Y-61886124D01*
X110025820Y-62168235D01*
X109484810Y-62371110D01*
X109326108Y-62395917D01*
X108967998Y-62419778D01*
X108500629Y-62430348D01*
X107984388Y-62425442D01*
X107803837Y-62420244D01*
X107280517Y-62393718D01*
X106901384Y-62347959D01*
X106611789Y-62274175D01*
X106357082Y-62163570D01*
X106261704Y-62113717D01*
X106014878Y-61968566D01*
X105835340Y-61812275D01*
X105712404Y-61610979D01*
X105635386Y-61330815D01*
X105593602Y-60937920D01*
X105576366Y-60398430D01*
X105573003Y-59680059D01*
X107073418Y-59680059D01*
X107073564Y-59833276D01*
X107078899Y-60302229D01*
X107097639Y-60611340D01*
X107137515Y-60803853D01*
X107206261Y-60923014D01*
X107311610Y-61012066D01*
X107360952Y-61041943D01*
X107702170Y-61143336D01*
X108198734Y-61178903D01*
X108300275Y-61178559D01*
X108710145Y-61159195D01*
X108993262Y-61086795D01*
X109172920Y-60929147D01*
X109272409Y-60654038D01*
X109315022Y-60229256D01*
X109324051Y-59622588D01*
X109323842Y-59395885D01*
X109312690Y-58883322D01*
X109264621Y-58539539D01*
X109152470Y-58330830D01*
X108949068Y-58223485D01*
X108627250Y-58183798D01*
X108159849Y-58178059D01*
X108036348Y-58178413D01*
X107642750Y-58195253D01*
X107374194Y-58261505D01*
X107206831Y-58410141D01*
X107116813Y-58674131D01*
X107080292Y-59086447D01*
X107073418Y-59680059D01*
X105573003Y-59680059D01*
X105572996Y-59678481D01*
X105573219Y-59421345D01*
X105579818Y-58765424D01*
X105603659Y-58278537D01*
X105655472Y-57926560D01*
X105745989Y-57675369D01*
X105885942Y-57490840D01*
X106086063Y-57338849D01*
X106357082Y-57185274D01*
X106437709Y-57143546D01*
X106645191Y-57055856D01*
X106877731Y-56998370D01*
X107182632Y-56964932D01*
X107607198Y-56949384D01*
X108198734Y-56945570D01*
X108458290Y-56946070D01*
X108976547Y-56953731D01*
X109346980Y-56975533D01*
X109617047Y-57017706D01*
X109834202Y-57086480D01*
X110045901Y-57188087D01*
X110332468Y-57353902D01*
X110547963Y-57526950D01*
X110698021Y-57739030D01*
X110794351Y-58025183D01*
X110848661Y-58420448D01*
X110872661Y-58959867D01*
X110877639Y-59622588D01*
X110878059Y-59678481D01*
G37*
G36*
X117094093Y-59678481D02*
G01*
X117093030Y-60086189D01*
X117084790Y-60636808D01*
X117065425Y-61030780D01*
X117031431Y-61304511D01*
X116979301Y-61494407D01*
X116905531Y-61636871D01*
X116678349Y-61886124D01*
X116241854Y-62168235D01*
X115700844Y-62371110D01*
X115542142Y-62395917D01*
X115184032Y-62419778D01*
X114716663Y-62430348D01*
X114200422Y-62425442D01*
X114019871Y-62420244D01*
X113496551Y-62393718D01*
X113117418Y-62347959D01*
X112827822Y-62274175D01*
X112573116Y-62163570D01*
X112477738Y-62113717D01*
X112230912Y-61968566D01*
X112051373Y-61812275D01*
X111928438Y-61610979D01*
X111851420Y-61330815D01*
X111809635Y-60937920D01*
X111792400Y-60398430D01*
X111789037Y-59680059D01*
X113289451Y-59680059D01*
X113289597Y-59833276D01*
X113294933Y-60302229D01*
X113313673Y-60611340D01*
X113353549Y-60803853D01*
X113422295Y-60923014D01*
X113527644Y-61012066D01*
X113576985Y-61041943D01*
X113918204Y-61143336D01*
X114414768Y-61178903D01*
X114516309Y-61178559D01*
X114926178Y-61159195D01*
X115209296Y-61086795D01*
X115388954Y-60929147D01*
X115488443Y-60654038D01*
X115531056Y-60229256D01*
X115540084Y-59622588D01*
X115539875Y-59395885D01*
X115528724Y-58883322D01*
X115480655Y-58539539D01*
X115368503Y-58330830D01*
X115165102Y-58223485D01*
X114843284Y-58183798D01*
X114375882Y-58178059D01*
X114252382Y-58178413D01*
X113858783Y-58195253D01*
X113590227Y-58261505D01*
X113422865Y-58410141D01*
X113332847Y-58674131D01*
X113296326Y-59086447D01*
X113289451Y-59680059D01*
X111789037Y-59680059D01*
X111789030Y-59678481D01*
X111789253Y-59421345D01*
X111795852Y-58765424D01*
X111819692Y-58278537D01*
X111871506Y-57926560D01*
X111962023Y-57675369D01*
X112101976Y-57490840D01*
X112302097Y-57338849D01*
X112573116Y-57185274D01*
X112653743Y-57143546D01*
X112861225Y-57055856D01*
X113093765Y-56998370D01*
X113398666Y-56964932D01*
X113823232Y-56949384D01*
X114414768Y-56945570D01*
X114674323Y-56946070D01*
X115192580Y-56953731D01*
X115563014Y-56975533D01*
X115833081Y-57017706D01*
X116050235Y-57086480D01*
X116261935Y-57188087D01*
X116548502Y-57353902D01*
X116763996Y-57526950D01*
X116914054Y-57739030D01*
X117010384Y-58025183D01*
X117064695Y-58420448D01*
X117088695Y-58959867D01*
X117093673Y-59622588D01*
X117094093Y-59678481D01*
G37*
%TD*%
M02*
